<svg width="124" height="21" viewBox="0 0 124 21" fill="none" xmlns="http://www.w3.org/2000/svg">
<path d="M49.0239 2.30799C49.0239 1.27798 49.8624 0.444877 50.8946 0.444877C51.9304 0.444877 52.7721 1.27798 52.7721 2.30799C52.7721 3.33667 51.9304 4.17065 50.8946 4.17065C49.8624 4.17065 49.0239 3.33667 49.0239 2.30799Z" fill="#273B7D"/>
<path d="M78.5962 14.7003C78.5962 13.6699 79.4343 12.8359 80.4665 12.8359C81.5018 12.8359 82.3435 13.6699 82.3435 14.7003C82.3435 15.7281 81.5018 16.563 80.4665 16.563C79.4343 16.563 78.5962 15.7281 78.5962 14.7003Z" fill="#499FDD"/>
<path fill-rule="evenodd" clip-rule="evenodd" d="M12.3691 10.8076C12.3691 7.44786 14.8476 5.00816 18.2627 5.00816C21.6905 5.00816 24.1793 7.44786 24.1793 10.8076C24.1793 14.1674 21.6905 16.6067 18.2627 16.6067C14.8476 16.6067 12.3691 14.1674 12.3691 10.8076ZM15.5267 10.8076C15.5267 12.624 16.6484 13.895 18.2627 13.895C19.9098 13.895 21.0203 12.6527 21.0203 10.8076C21.0203 8.99178 19.8862 7.72159 18.2627 7.72159C16.6484 7.72159 15.5267 8.99178 15.5267 10.8076Z" fill="#273B7D"/>
<path d="M45.3936 11.0977C45.2609 10.85 45.1087 10.6403 44.9466 10.4738L44.8433 10.3652L44.9519 10.2619C45.1087 10.0981 45.269 9.90385 45.4235 9.6787L48.4373 5.23681L44.7787 5.23681L42.5144 8.71137C42.3862 8.89769 42.1274 8.99173 41.74 8.99173H41.2239V2.42271C41.2239 1.10882 40.3983 0.93001 39.5064 0.93001H37.9795L37.9821 16.4358H41.2239V11.7846H41.5276C41.8971 11.7846 42.1488 11.827 42.2641 12.0261L44.0525 15.3727C44.552 16.2808 45.0498 16.4358 45.9864 16.4358H48.4707L46.6205 13.4014L45.3936 11.0977Z" fill="#273B7D"/>
<path d="M61.1313 4.98345C59.4824 4.98345 58.4302 5.70971 57.8406 6.32383L57.6438 6.52118L57.5744 6.25276C57.4011 5.59492 56.8173 5.23289 55.9387 5.23289H54.4858L54.495 16.4319H57.7147V11.2703C57.7147 10.7657 57.7808 10.3278 57.9154 9.92821C58.2738 8.71894 59.2735 7.96707 60.5231 7.96707C61.5281 7.96707 61.9209 8.4929 61.9209 9.85183V14.7295C61.9209 15.8893 62.4619 16.4319 63.6326 16.4319H65.1649L65.1596 9.30923C65.1596 6.47924 63.7676 4.98345 61.1322 4.98345" fill="#273B7D"/>
<path d="M50.9372 5.2378H49.4111L49.4216 13.8969H49.4205V16.4346H51.0495C51.07 16.4346 51.0864 16.4368 51.1069 16.4368L51.8657 16.4346H52.6209V16.4302H52.6261L52.6327 6.93801C52.6327 5.79277 52.0804 5.23781 50.9383 5.23781" fill="#273B7D"/>
<path fill-rule="evenodd" clip-rule="evenodd" d="M25.0122 10.8076C25.0122 7.44786 27.4912 5.00816 30.9096 5.00816C34.334 5.00816 36.8268 7.44786 36.8268 10.8076C36.8268 14.1674 34.334 16.6067 30.9096 16.6067C27.4912 16.6067 25.0122 14.1674 25.0122 10.8076ZM28.1716 10.8076C28.1716 12.624 29.2956 13.895 30.9096 13.895C32.5569 13.895 33.667 12.6527 33.667 10.8076C33.667 8.99178 32.5297 7.72159 30.9096 7.72159C29.2956 7.72159 28.1716 8.99178 28.1716 10.8076Z" fill="#273B7D"/>
<path fill-rule="evenodd" clip-rule="evenodd" d="M94.0278 10.8076C94.0278 7.44786 96.5068 5.00816 99.9245 5.00816C103.349 5.00816 105.842 7.44786 105.842 10.8076C105.842 14.1674 103.349 16.6067 99.9245 16.6067C96.5068 16.6067 94.0278 14.1674 94.0278 10.8076ZM97.1863 10.8076C97.1863 12.624 98.3111 13.895 99.9245 13.895C101.572 13.895 102.683 12.6527 102.683 10.8076C102.683 8.99178 101.545 7.72159 99.9245 7.72159C98.3111 7.72159 97.1863 8.99178 97.1863 10.8076Z" fill="#499FDD"/>
<path fill-rule="evenodd" clip-rule="evenodd" d="M74.5195 5.89031C74.7551 5.44925 75.2252 5.20775 75.8362 5.20775H75.8367H77.3326L77.3208 15.4787C77.3208 19.3948 74.1191 20.7864 71.377 20.7864C70.0451 20.7864 68.5716 20.431 67.4397 19.8354L67.2157 19.7171L67.5773 18.8014L67.8329 18.1745C68.1098 17.495 68.5102 17.3259 69.1933 17.5303C69.7165 17.7184 70.4989 17.9259 71.3584 17.9259C73.127 17.9259 74.1027 17.1008 74.1027 15.605V15.2937L73.8542 15.4787C73.2121 15.9608 72.4021 16.1979 71.377 16.1979C68.3761 16.1979 66.2788 13.869 66.2788 10.5366C66.2788 7.20023 68.3058 4.95831 71.3165 4.95831C72.8297 4.95831 73.7615 5.48721 74.2812 5.93313L74.4304 6.0616L74.5195 5.89031ZM69.5619 10.4527C69.5619 11.8796 70.1885 13.4023 71.9487 13.4023C72.9588 13.4023 74.1646 12.9092 74.1646 10.5582C74.1646 8.06555 72.802 7.77505 71.7796 7.77505C69.7222 7.77505 69.5619 9.82404 69.5619 10.4527Z" fill="#273B7D"/>
<path fill-rule="evenodd" clip-rule="evenodd" d="M9.14504 8.22229L9.61885 8.4863H9.6182C10.7684 9.12823 11.4527 10.3905 11.4527 11.8668C11.4527 14.609 9.33535 16.3794 6.05483 16.3794L2.20443 16.3802C2.20378 16.3798 2.20313 16.3798 2.20215 16.3798C2.20117 16.3798 2.19986 16.3798 2.19791 16.3794H0.652344L0.652344 2.54598C0.662133 1.67313 1.36215 0.967631 2.23706 0.935835H2.62055V0.936715H5.98826C8.93933 0.936715 10.8461 2.50977 10.8461 4.94684C10.8461 6.53975 10.0397 7.46159 9.55868 7.87174L9.14504 8.22229ZM6.2715 13.7666L3.65053 13.764L3.65053 10.6572C3.65053 9.9932 3.91015 9.64794 4.48407 9.56848H6.2715C7.54727 9.56848 8.37154 10.3663 8.37245 11.6567C8.37154 12.9812 7.56776 13.7658 6.2715 13.7667V13.7666ZM3.65053 5.38567V4.56802C3.65053 3.85236 3.95596 3.51197 4.62622 3.46825H5.96738C7.11757 3.46825 7.80649 4.15081 7.80649 5.29252C7.80649 6.16315 7.3349 7.17903 6.00967 7.17903H3.65053V5.38567Z" fill="#273B7D"/>
<path d="M120.224 5.0196C118.888 5.0196 117.597 5.63989 116.768 6.68005L116.534 6.97321L116.351 6.64518C115.755 5.56705 114.729 5.0196 113.302 5.0196C111.805 5.0196 110.801 5.84739 110.335 6.33966L110.03 6.66726L109.912 6.23635C109.742 5.61606 109.185 5.27433 108.341 5.27433H106.988L106.975 16.4301H110.05V11.5056C110.05 11.0743 110.104 10.6473 110.213 10.201C110.507 9.01116 111.313 7.73127 112.669 7.85929C113.505 7.93877 113.914 8.57938 113.914 9.81689V16.4301H117.01V11.5056C117.01 10.9665 117.061 10.563 117.184 10.1582C117.433 9.0222 118.275 7.85753 119.583 7.85753C120.53 7.85753 120.88 8.38909 120.88 9.81689V14.7992C120.88 15.9263 121.387 16.4301 122.523 16.4301H123.97L123.973 9.30829C123.973 6.46329 122.71 5.0196 120.224 5.0196" fill="#499FDD"/>
<path d="M92.2477 12.5569C92.2386 12.5679 90.9155 13.9512 89.1735 13.9512C87.5864 13.9512 85.9829 12.9856 85.9829 10.8302C85.9829 8.96932 87.2261 7.66867 89.0056 7.66867C89.5836 7.66867 90.2408 7.87397 90.3436 8.21921L90.3588 8.2775C90.5957 9.06027 91.3132 9.10221 91.4543 9.10221L93.1388 9.10402V7.644C93.1388 5.7182 90.6682 5.01975 89.0056 5.01975C85.4503 5.01975 82.8706 7.47402 82.8706 10.8537C82.8706 14.232 85.4223 16.6827 88.9406 16.6827C91.9931 16.6827 93.6531 14.6934 93.6687 14.6735L93.7573 14.5658L92.4232 12.3715L92.2477 12.557" fill="#499FDD"/>
</svg>
