<svg width="80" height="28" viewBox="0 0 80 28" xmlns="http://www.w3.org/2000/svg">
<path fill-rule="evenodd" clip-rule="evenodd" d="M54.9385 0H60.054L50.0652 28H44.9497L54.9385 0ZM17.5863 25.0281V20.3614H9.41366L13.4092 16.7351C14.8217 15.4669 15.7752 14.3324 16.2696 13.3317C16.764 12.331 17.0112 11.2659 17.0112 10.1364C17.0112 8.86815 16.6631 7.7535 15.9669 6.79243C15.2707 5.83135 14.3021 5.09321 13.0611 4.57799C11.8201 4.06277 10.3924 3.80517 8.77801 3.80517C6.7399 3.80517 4.97421 4.19158 3.48094 4.9644C1.98767 5.73723 0.827353 6.79738 0 8.14487L4.44955 10.5822C4.87331 9.92831 5.41311 9.42795 6.06894 9.08117C6.72477 8.7344 7.44618 8.561 8.23317 8.561C9.12106 8.561 9.79707 8.74926 10.2612 9.12576C10.7253 9.50226 10.9574 10.0274 10.9574 10.7011C10.9574 11.2163 10.8262 11.7266 10.5639 12.2319C10.3016 12.7372 9.78698 13.3466 9.02017 14.0599L1.08968 21.3423V25.0281H17.5863ZM39.0478 21.0448H42.1958V16.3782H39.0478V12.841H33.3875V16.3782H29.0893L37.716 4.22105H31.5108L22.0063 17.2104V21.0448H33.2059V25.0278H39.0478V21.0448ZM80 7.90683V4.22105H62.444V12.0979H67.5594V8.88772H73.1289L65.9854 25.0278H72.5236L80 7.90683Z"/>
</svg>
