<svg width="10" height="8" viewBox="0 0 10 8" xmlns="http://www.w3.org/2000/svg">
<path fill-rule="evenodd" clip-rule="evenodd" d="M8.93662 0.000452357C8.66819 0.00869814 8.41335 0.126727 8.22604 0.329552C6.59048 2.05725 5.09721 3.75134 3.52656 5.44194L1.68014 3.88156C1.39166 3.63826 1.00195 3.57566 0.657817 3.71737C0.313684 3.85907 0.067421 4.18354 0.011804 4.56854C-0.043813 4.95353 0.0996661 5.34055 0.388188 5.5838L2.9721 7.76267C3.38475 8.10914 3.97874 8.07245 4.35018 7.67755C6.20888 5.71417 7.87406 3.78576 9.69026 1.86723C9.99381 1.55328 10.084 1.0754 9.91743 0.662928C9.75091 0.250456 9.36172 -0.0124209 8.93662 0.000452357Z"/>
</svg>
