<?xml version="1.0" encoding="UTF-8"?>
<svg width="12px" height="12px" viewBox="0 0 12 12" version="1.1" xmlns="http://www.w3.org/2000/svg" xmlns:xlink="http://www.w3.org/1999/xlink">
    <!-- Generator: sketchtool 53.1 (72631) - https://sketchapp.com -->
    <title>BE9F350A-F4CB-471E-9BFA-B1D5F6D07825</title>
    <desc>Created with sketchtool.</desc>
    <g id="Page-1" stroke="none" stroke-width="1"  fill-rule="evenodd">
        <g id="UI-KIT.-Icons" transform="translate(-840.000000, -192.000000)">
            <g id="UI-icons" transform="translate(112.000000, 118.000000)">
                <path d="M732.847729,80 L728.238643,75.3909146 C727.920452,75.0727236 727.920452,74.5568342 728.238643,74.2386432 C728.556834,73.9204523 729.072724,73.9204523 729.390915,74.2386432 L734,78.8477286 L738.609085,74.2386432 C738.927276,73.9204523 739.443166,73.9204523 739.761357,74.2386432 C740.079548,74.5568342 740.079548,75.0727236 739.761357,75.3909146 L735.152271,80 L739.761357,84.6090854 C740.079548,84.9272764 740.079548,85.4431658 739.761357,85.7613568 C739.443166,86.0795477 738.927276,86.0795477 738.609085,85.7613568 L734,81.1522714 L729.390915,85.7613568 C729.072724,86.0795477 728.556834,86.0795477 728.238643,85.7613568 C727.920452,85.4431658 727.920452,84.9272764 728.238643,84.6090854 L732.847729,80 Z" id="close"></path>
            </g>
        </g>
    </g>
</svg>