<svg width="24" height="24" viewBox="0 0 24 24" xmlns="http://www.w3.org/2000/svg">
<path fill-rule="evenodd" clip-rule="evenodd" d="M4.8 3.64736C4.80855 3.11684 5.13879 2.64222 5.63986 2.44033C6.14094 2.23844 6.71665 2.34803 7.104 2.71903L7.908 3.50635L6.96 4.43467L8.652 6.10331L12.252 2.57802L10.548 0.909388L9.6 1.84946L8.796 1.06215C7.72398 0.0246321 6.12243 -0.284859 4.72828 0.276084C3.33412 0.837026 2.41743 2.15974 2.4 3.63561V9.38182H0V10.5569C0.00361414 14.3269 2.05636 17.81 5.388 19.6992L3.732 22.9542L5.88 24L7.596 20.651C8.63317 20.9685 9.71333 21.1309 10.8 21.1328H13.2C14.2907 21.1321 15.375 20.9697 16.416 20.651L18.132 24L20.28 22.9542L18.612 19.6992C21.9436 17.81 23.9964 14.3269 24 10.5569V9.38182H4.8V3.64736Z"/>
</svg>
