<svg width="24" height="24" viewBox="0 0 24 24" xmlns="http://www.w3.org/2000/svg">
<path fill-rule="evenodd" clip-rule="evenodd" d="M21.5747 0H2.42526C1.08632 0 0 1.11136 0 2.54024V21.4598C0 22.8622 1.08632 24 2.42526 24H21.5747C22.9137 24 24 22.8622 24 21.4598V2.51378C24 1.11136 22.9137 0 21.5747 0ZM7.55368 2.16979H10.9642V4.73649H7.55368V2.16979ZM14.7032 11.2194C15.2589 11.5634 15.2589 12.3837 14.7032 12.7277L10.1811 15.6119C9.6 15.9824 8.89263 15.559 8.89263 14.8445V9.10254C8.89263 8.41455 9.62526 7.99118 10.1811 8.33517L14.7032 11.2194ZM5.48211 21.8037H2.42526C2.22316 21.8037 2.07158 21.645 2.07158 21.4333V19.2106H5.48211V21.8037ZM5.48211 4.73649H2.07158V2.54024C2.07158 2.32856 2.22316 2.16979 2.42526 2.16979H5.48211V4.73649ZM10.9642 21.8037H7.55368V19.2106H10.9642V21.8037ZM16.4463 21.8037H13.0358V19.2106H16.4463V21.8037ZM16.4463 4.73649H13.0358V2.16979H16.4463V4.73649ZM21.9284 21.4598C21.9284 21.6714 21.7768 21.8302 21.5747 21.8302H18.5179V19.237H21.9284V21.4598ZM21.9284 4.73649H18.5179V2.16979H21.5747C21.7768 2.16979 21.9284 2.32856 21.9284 2.54024V4.73649Z"/>
</svg>
