<svg width="16" height="16" viewBox="0 0 16 16" xmlns="http://www.w3.org/2000/svg">
<path fill-rule="evenodd" clip-rule="evenodd" d="M16 5.04085C16 4.59385 15.6247 4.23012 15.1635 4.23012H13.3112C13.2266 4.23012 13.1504 4.18666 13.118 4.11094C13.0857 4.03518 13.1036 3.9539 13.1635 3.89597L13.9568 3.1272C14.2829 2.81109 14.2831 2.29676 13.957 1.98066C13.799 1.82755 13.5894 1.74324 13.366 1.74324C13.1425 1.74324 12.9334 1.82755 12.7755 1.98066L11.9842 2.74944C11.9244 2.8074 11.8381 2.82471 11.7601 2.79334C11.6819 2.762 11.6387 2.68806 11.6387 2.6061V0.810732C11.6387 0.363694 11.2634 0 10.8022 0C10.341 0 9.96572 0.363694 9.96572 0.810732V4.63289C9.96572 4.68664 9.93561 4.7382 9.89638 4.77623L7.89299 6.71015C7.85376 6.74817 7.79964 6.76949 7.74419 6.76949C7.68873 6.76949 7.63365 6.74817 7.59438 6.71015L6.1032 5.26854C6.06397 5.23052 6.03436 5.17896 6.03436 5.12521V1.30305C6.03436 0.856052 5.65912 0.492317 5.1979 0.492317C4.73667 0.492317 4.36143 0.856052 4.36143 1.30305V3.09837C4.36143 3.18034 4.3181 3.25424 4.23997 3.28557C4.16185 3.31695 4.0795 3.2996 4.01969 3.24163L2.7186 1.9805C2.56064 1.82739 2.35056 1.74291 2.12714 1.74291C1.90372 1.74291 1.69368 1.82694 1.53567 1.98009C1.37766 2.1332 1.29067 2.33625 1.29067 2.55283C1.29067 2.76938 1.37766 2.97186 1.53567 3.12497L2.83676 4.38383C2.89656 4.4418 2.91446 4.52453 2.88209 4.6003C2.84972 4.67602 2.77348 4.71656 2.68887 4.71656H0.836468C0.37524 4.71656 0 5.08025 0 5.52729C0 5.97433 0.37524 6.33802 0.836468 6.33802H4.77995C4.83541 6.33802 4.88861 6.36935 4.92784 6.40734L6.41521 7.85891C6.49689 7.93804 6.49689 8.06861 6.41521 8.14774L4.92784 9.59376C4.88861 9.63182 4.83545 9.66202 4.77995 9.66202H0.836468C0.37524 9.66202 0 10.0257 0 10.4728C0 10.9198 0.37524 11.2835 0.836468 11.2835H2.68878C2.77335 11.2835 2.84955 11.324 2.88192 11.3998C2.9143 11.4755 2.89635 11.5538 2.83655 11.6118L1.53534 12.8728C1.2092 13.1889 1.20899 13.7032 1.53513 14.0194C1.69309 14.1725 1.90267 14.2568 2.12609 14.2568C2.34951 14.2568 2.55863 14.1725 2.71664 14.0194L4.0158 12.7583C4.07561 12.7003 4.16176 12.683 4.23989 12.7144C4.31801 12.7457 4.36134 12.8197 4.36134 12.9016V14.697C4.36134 15.144 4.73658 15.5077 5.19781 15.5077C5.65904 15.5077 6.03428 15.144 6.03428 14.697V10.8748C6.03428 10.821 6.06439 10.7695 6.10362 10.7315L7.5991 9.2899C7.63996 9.25029 7.69438 9.23051 7.74791 9.23051C7.80144 9.23051 7.85686 9.25029 7.89772 9.2899L9.89684 11.2238C9.93607 11.2618 9.96568 11.3134 9.96568 11.3671V15.1893C9.96568 15.6363 10.3409 16 10.8021 16C11.2634 16 11.6386 15.6363 11.6386 15.1893V13.3939C11.6386 13.312 11.6819 13.2381 11.7601 13.2067C11.8381 13.1753 11.9205 13.1927 11.9804 13.2507L12.7735 14.0196C12.9315 14.1727 13.1416 14.2572 13.365 14.2572C13.5885 14.2572 13.7985 14.1733 13.9566 14.0201C14.2826 13.704 14.2826 13.1904 13.9566 12.8743L13.1634 12.107C13.1035 12.049 13.0857 11.9648 13.118 11.8891C13.1504 11.8133 13.2266 11.7699 13.3112 11.7699H15.1635C15.6248 11.7699 16 11.4062 16 10.9592C16 10.5121 15.6248 10.1484 15.1635 10.1484H11.22C11.1646 10.1484 11.1114 10.1205 11.0722 10.0824L9.07689 8.14182C8.99521 8.06269 8.99521 7.93285 9.07689 7.85372L11.0722 5.91684C11.1114 5.87882 11.1646 5.85154 11.22 5.85154H15.1635C15.6248 5.85158 16 5.48789 16 5.04085Z"/>
</svg>
