<svg width="43" height="56" viewBox="0 0 43 56" xmlns="http://www.w3.org/2000/svg">
<path fill-rule="evenodd" clip-rule="evenodd" d="M32.1801 0H34.2668H36.3536C36.9004 0 37.3203 0.476636 37.2417 1.00846L36.7719 4.19059H34.2668H31.7619L31.2919 1.00846C31.2134 0.476636 31.633 0 32.1801 0ZM43 53.7221V30.948C43 28.7368 42.2199 26.5935 40.7922 24.8838L38.218 21.8008C37.5455 20.9954 37.1779 19.9858 37.1779 18.9439V9.58628H34.2668H31.3557V18.9439C31.3557 19.9858 30.9884 20.9953 30.3157 21.8008L27.7416 24.8838C26.314 26.5935 25.5339 28.7365 25.5339 30.948V53.7223C25.5339 54.9803 26.5717 56 27.8522 56H34.2672H40.6821C41.9621 55.9998 43 54.9801 43 53.7221ZM40.4428 43.3429C40.4428 44.3518 39.6102 45.1697 38.5833 45.1697H29.9497C28.923 45.1697 28.0903 44.3518 28.0903 43.3429V36.2436C28.0903 35.2345 28.923 34.4168 29.9497 34.4168H38.5833C39.6102 34.4168 40.4427 35.2345 40.4427 36.2436L40.4428 43.3429ZM31.1598 8.12623H31.3555H34.2666H37.1776H37.3733C38.0691 8.12623 38.6331 7.57203 38.6331 6.88844C38.6331 6.20484 38.0693 5.65064 37.3733 5.65064H37.1776H34.2666H31.3555H31.1598C30.4641 5.65064 29.8999 6.20484 29.8999 6.88844C29.8999 7.57203 30.4642 8.12623 31.1598 8.12623ZM2.37577 36.816C3.66524 37.4368 5.11355 37.8011 6.32726 38.0168V38.0185C6.63089 38.0826 6.89653 38.2165 7.12404 38.3814C7.78701 38.8615 8.14811 39.6469 8.14811 40.4562V52.141C8.14811 53.642 6.78725 54.5762 5.56634 55.1122C5.24654 55.2526 5.34838 55.7208 5.69863 55.7208H8.98137H12.2642C12.6145 55.7208 12.7163 55.2526 12.3965 55.1122C11.1756 54.5762 9.81474 53.642 9.81474 52.141V40.4562C9.81474 39.647 10.1758 38.8615 10.8388 38.3814C11.0664 38.2165 11.3321 38.0826 11.6356 38.0185V38.0168C12.8493 37.8011 14.2976 37.4368 15.587 36.816C17.263 36.0087 18.1991 34.2116 17.911 32.3996C17.4604 29.5657 16.5151 24.2515 15.0097 18.7298C14.8806 18.2562 14.4411 17.928 13.9419 17.928H8.98125H4.02068C3.52151 17.928 3.08205 18.2562 2.95295 18.7299C1.44753 24.2516 0.502286 29.5657 0.0516148 32.3997C-0.236324 34.2116 0.69983 36.0087 2.37577 36.816ZM3.73428 26.2322C3.82207 25.8124 4.19911 25.5091 4.63527 25.5091H8.98148H13.3277C13.7639 25.5091 14.1409 25.8124 14.2287 26.2322C14.9699 29.7748 15.1204 31.7718 15.1302 32.9659C15.1372 33.8241 14.6896 34.6402 13.9234 35.0526C12.0679 36.051 8.98148 35.8671 8.98148 35.8671C8.98148 35.8671 5.89511 36.051 4.03956 35.0526C3.27334 34.6402 2.82574 33.8241 2.83282 32.9659C2.84261 31.7718 2.99319 29.7748 3.73428 26.2322Z"/>
</svg>
