<svg width="41" height="49" viewBox="0 0 41 49" xmlns="http://www.w3.org/2000/svg">
<path fill-rule="evenodd" clip-rule="evenodd" d="M9.04036 40.2056C12.8601 40.212 16.6803 40.2071 20.5 40.2076C24.3197 40.2071 28.1399 40.212 31.9596 40.2056C37.8637 40.1952 41.9312 35.2236 40.8155 29.4557C39.296 21.6023 37.8153 13.7416 36.3317 5.88183C35.6916 2.49024 32.8864 0.0197991 29.4251 0H11.5749C8.1141 0.0197991 5.30889 2.49024 4.66828 5.88232C3.18416 13.7421 1.70404 21.6028 0.184526 29.4562C-0.931177 35.2236 3.1363 40.1957 9.04036 40.2056ZM35.4214 32.279C35.4169 34.0124 34.029 35.3612 32.2662 35.3444C30.5299 35.3291 29.1709 33.9318 29.1978 32.1889C29.2237 30.4917 30.6066 29.1508 32.3241 29.1572C34.0764 29.1641 35.4259 30.5243 35.4214 32.279ZM15.086 3.58958H25.914C26.7914 3.58958 27.5028 4.29592 27.5028 5.16757C27.5028 6.03873 26.7914 6.74556 25.914 6.74556H15.086C14.2086 6.74556 13.4972 6.03873 13.4972 5.16757C13.4972 4.29542 14.2086 3.58958 15.086 3.58958ZM6.89919 22.6225C7.41815 19.8858 7.98448 17.1574 8.53436 14.4261C8.69089 13.6495 8.84893 12.8724 9.02441 12.0997C9.28713 10.9479 9.86891 10.5104 11.0704 10.4673H29.9296C31.1306 10.5104 31.7124 10.9479 31.9756 12.0997C32.1516 12.8729 32.3091 13.6495 32.4656 14.4261C33.016 17.1574 33.5818 19.8853 34.1008 22.6225C34.3895 24.1445 33.6496 25.5904 32.0808 25.5904H8.91922C7.35035 25.5904 6.61054 24.1445 6.89919 22.6225ZM8.67594 29.1572C10.3934 29.1508 11.7768 30.4917 11.8022 32.1889C11.8291 33.9318 10.4701 35.3291 8.73377 35.3444C6.97097 35.3608 5.58308 34.0124 5.57859 32.279C5.5741 30.5243 6.92361 29.1641 8.67594 29.1572ZM27.2117 42.4262L28.622 43.7418H12.3785L13.8437 42.4262H9.13857L1.74093 49H6.46148L8.86089 46.8676H32.1386L34.538 49H39.2586L31.8619 42.4262H27.2117Z"/>
</svg>
