<svg width="24" height="24" viewBox="0 0 24 24" xmlns="http://www.w3.org/2000/svg">
<path fill-rule="evenodd" clip-rule="evenodd" d="M11.3323 11.312H6.5165C6.55088 9.94313 6.70197 8.58005 6.96803 7.23847C8.41529 7.43622 9.87251 7.5468 11.3323 7.56964V11.312ZM5.63726 16.9756C5.36447 15.5627 5.21131 14.1282 5.17949 12.688H0C0.101927 14.6042 0.637827 16.4692 1.5648 18.1337C2.87936 17.6023 4.24428 17.2142 5.63726 16.9756ZM11.3323 24V17.8062C9.97871 17.8278 8.62737 17.9269 7.28451 18.1032C8.14302 21.2522 9.63079 23.5219 11.3323 24ZM11.3323 12.688H6.5165C6.55088 14.0569 6.70197 15.4199 6.96803 16.7615C8.41529 16.5638 9.87251 16.4532 11.3323 16.4303V12.688ZM17.032 7.23847C15.5847 7.43622 14.1275 7.5468 12.6678 7.56964V11.312H17.4835C17.4491 9.94313 17.298 8.58005 17.032 7.23847ZM11.3323 0C9.63079 0.478122 8.14302 2.74779 7.2845 5.89675C8.62736 6.07308 9.97871 6.17225 11.3323 6.1938V0ZM12.6678 0V6.1938C14.0213 6.17224 15.3727 6.07308 16.7155 5.89679C15.857 2.74779 14.3692 0.478122 12.6678 0H12.6678ZM5.63726 7.0244C4.24428 6.78582 2.87936 6.39768 1.5648 5.86632C0.637827 7.53081 0.101927 9.39579 0 11.312H5.17949C5.21131 9.87182 5.36447 8.43724 5.63726 7.0244ZM8.77826 23.9289C7.56299 22.6725 6.57544 20.7164 5.94279 18.3135C4.7023 18.5243 3.48453 18.8584 2.30656 19.3111C3.90153 21.5531 6.18031 23.1791 8.77826 23.9289ZM8.77826 0.0710865C6.18031 0.820856 3.90153 2.44685 2.30656 4.6889C3.48453 5.14161 4.7023 5.47569 5.94279 5.68646C6.57544 3.28356 7.56299 1.32752 8.77826 0.0710865ZM21.6935 4.6889C20.0985 2.44685 17.8197 0.820853 15.2217 0.0710865C16.437 1.32752 17.4246 3.28361 18.0572 5.68649C19.2977 5.47572 20.5155 5.14163 21.6935 4.6889ZM16.7155 18.1032C15.3727 17.9269 14.0213 17.8278 12.6678 17.8062V24C14.3692 23.5219 15.857 21.2522 16.7155 18.1032ZM21.6935 19.3111C20.5155 18.8584 19.2977 18.5243 18.0572 18.3135C17.4246 20.7164 16.437 22.6725 15.2217 23.9289C17.8197 23.1791 20.0985 21.5531 21.6935 19.3111ZM22.4352 5.86632C21.1206 6.39768 19.7557 6.78582 18.3627 7.0244C18.6355 8.43723 18.7887 9.87182 18.8205 11.312H24C23.8981 9.39579 23.3622 7.53081 22.4352 5.86632ZM12.6678 16.4303C14.1275 16.4532 15.5847 16.5638 17.032 16.7615C17.2981 15.4199 17.4491 14.0569 17.4835 12.688H12.6678V16.4303ZM24 12.688H18.8205C18.7887 14.1282 18.6355 15.5627 18.3627 16.9756C19.7557 17.2142 21.1206 17.6023 22.4352 18.1337C23.3622 16.4692 23.8981 14.6042 24 12.688Z"/>
</svg>
