<svg width="59" height="54" viewBox="0 0 59 54" xmlns="http://www.w3.org/2000/svg">
<path fill-rule="evenodd" clip-rule="evenodd" d="M32.6327 35.1187C29.0542 32.272 26.0677 28.7294 23.847 24.697C23.3433 23.7516 22.8928 22.7777 22.4977 21.7802C21.3282 18.9263 20.7205 15.8665 20.7092 12.7743C20.7092 8.21049 23.1014 3.99335 26.9847 1.71143C30.8681 -0.570478 35.6525 -0.570478 39.5358 1.71143C43.4191 3.99335 45.8113 8.21049 45.8113 12.7743C45.7967 15.8672 45.1855 18.9271 44.0123 21.7802C43.5883 22.8482 43.0956 23.8865 42.5376 24.8886C40.3309 28.8418 37.3853 32.3172 33.8669 35.1187L33.2498 35.5765L32.6327 35.1187ZM39.048 10.2505C38.0634 7.87192 35.756 6.33193 33.2085 6.35316C31.5579 6.35316 29.9749 7.01694 28.8078 8.19849C27.6407 9.38003 26.985 10.9825 26.985 12.6535C26.964 15.2324 28.4852 17.5683 30.8348 18.565C33.1845 19.5617 35.8962 19.0216 37.6976 17.1979C39.499 15.3743 40.0326 12.6291 39.048 10.2505ZM28.918 39.3882C28.1382 39.3882 27.506 39.9461 27.506 40.6342C27.506 41.3223 28.1382 41.8801 28.918 41.8801H37.39C38.1698 41.8801 38.802 41.3223 38.802 40.6342C38.802 39.9461 38.1698 39.3882 37.39 39.3882H28.918ZM54.6431 21.431H48.4893C48.0307 22.7083 47.4964 23.9566 46.8893 25.1688H54.68C55.0356 25.1617 55.3313 25.4444 55.3446 25.8042V49.6267C55.3313 49.9865 55.0356 50.2692 54.68 50.2621H5.44955C4.55551 50.2381 3.82826 49.5256 3.77527 48.6218C3.72228 47.718 4.36116 46.9234 5.24612 46.7924C6.13107 46.6615 6.96788 47.2378 7.17262 48.1191C7.39877 49.0969 8.35628 49.7118 9.32645 49.5021C10.2328 49.3778 10.9101 48.5965 10.9141 47.6706V25.1688H19.5295C18.9224 23.9566 18.3881 22.7083 17.9295 21.431H10.7787C10.4354 18.7128 8.17013 16.6638 5.46354 16.623C2.75694 16.5823 0.432561 18.5624 0.00958162 21.269C-0.00319387 21.4099 -0.00319387 21.5517 0.00958162 21.6926V21.7923V22.0913C0.00295687 22.1867 0.00295687 22.2825 0.00958162 22.3779V25.6298V25.8042V48.5303V48.6175C0.00295687 48.7129 0.00295687 48.8086 0.00958162 48.904C0.2068 51.7373 2.50895 53.9489 5.31417 54H54.6431C57.0378 54.0069 58.9864 52.0509 59 49.6267V25.8042C58.9864 23.38 57.0378 21.424 54.6431 21.431ZM2.38495 48.5303C2.38495 48.8743 2.10944 49.1532 1.76957 49.1532C1.42971 49.1532 1.15419 48.8743 1.15419 48.5303V25.8042V25.717V22.2408C1.14826 22.1912 1.14826 22.141 1.15419 22.0913V21.7923V21.6926C1.1584 21.6637 1.1584 21.6343 1.15419 21.6054C1.34915 20.1363 2.28005 18.8735 3.61571 18.2663V46.1131C2.84479 46.6711 2.38663 47.5709 2.38495 48.5303Z"/>
</svg>
