<svg width="63" height="56" viewBox="0 0 63 56" xmlns="http://www.w3.org/2000/svg">
<path fill-rule="evenodd" clip-rule="evenodd" d="M61.469 0H46.2677C45.4048 0 44.6746 0.721312 44.6746 1.57377V16.5902C44.6746 17.4426 45.4048 18.1639 46.2677 18.1639H51.9765V55.2131C51.9765 55.6721 52.3084 56 52.7731 56H55.0301C55.4947 56 55.8266 55.6721 55.8266 55.2131V18.1639H61.4027C62.2656 18.1639 62.9958 17.4426 62.9958 16.5902V1.57377C63.0622 0.721312 62.332 0 61.469 0ZM53.5697 11.6066H52.1093V14.3607C52.1093 14.5574 51.9765 14.6885 51.7774 14.6885H50.2506C50.0515 14.6885 49.9187 14.5574 49.9187 14.3607V4C49.9187 3.67213 50.1842 3.40984 50.5161 3.40984H53.4369C55.6939 3.40984 57.6189 5.18033 57.6853 7.40984C57.8181 9.77049 55.893 11.6066 53.5697 11.6066ZM53.5697 5.57377H52.1093V9.5082H53.5697C54.6981 9.5082 55.5611 8.65574 55.5611 7.54098C55.5611 6.42623 54.6981 5.57377 53.5697 5.57377ZM41.8866 29.0492H45.0065C46.3341 29.0492 47.4626 30.1639 47.5954 31.4098V32.7869C47.5954 34.1639 46.4669 35.2131 45.1392 35.2131H44.2763C44.741 37.4426 45.0065 39.6721 45.0065 41.9672V53.5738C45.0065 54.9508 43.878 56 42.5504 56H38.5011C37.1071 56 36.045 54.8852 36.045 53.5738V49.8361H11.5503V53.5738C11.5503 54.9508 10.4219 56 9.09423 56H5.04497C3.65097 56 2.58887 54.8852 2.58887 53.5738V42.0328C2.58887 39.7377 2.85439 37.5082 3.31906 35.2787H2.45611C1.0621 35.2787 0 34.1639 0 32.8525V31.4754C0 30.0984 1.12848 29.0492 2.45611 29.0492H5.50964L7.50108 22.8852C8.56318 19.6721 11.484 17.5738 14.8694 17.5738H32.5268C35.9123 17.5738 38.8994 19.7377 39.8951 22.8852L41.8866 29.0492ZM12.1478 24.3934L9.82442 31.541C9.69166 31.8689 9.95719 32.1967 10.2891 32.1967H37.1071C37.439 32.1967 37.7045 31.8689 37.5718 31.541L35.2484 24.3934C34.8502 23.2131 33.7881 22.4262 32.5268 22.4262H14.8694C13.6082 22.4262 12.5461 23.2131 12.1478 24.3934ZM14.9358 43.2787H10.0236C9.22699 43.2787 8.4968 42.623 8.4968 41.7705V39.4754C8.4968 38.5574 9.29337 37.9016 10.2227 38.0328L14.803 38.7541C15.4004 38.8197 15.8651 39.2787 15.9979 39.9344L16.3298 41.5082C16.5953 42.4262 15.9315 43.2787 14.9358 43.2787ZM37.3726 43.3443C38.2356 43.3443 38.8994 42.6229 38.8994 41.8361H38.833V39.541C38.833 38.6229 38.0365 37.9672 37.1071 38.0984L32.5268 38.8197C31.9294 38.9508 31.4647 39.4098 31.3319 40L31 41.5738C30.8009 42.4918 31.5311 43.3443 32.4604 43.3443H37.3726Z"/>
</svg>
