<svg width="26" height="24" viewBox="0 0 26 24" xmlns="http://www.w3.org/2000/svg">
<path fill-rule="evenodd" clip-rule="evenodd" d="M23.4 5.57333V5.33333C23.4 2.38781 21.0719 0 18.2 0H7.8C4.92812 0 2.6 2.38781 2.6 5.33333V5.57333C1.04555 6.137 0.00463368 7.64233 0 9.33333V21.3333H2.6V24H5.2V21.3333H20.8V24H23.4V21.3333H26V9.33333C25.9954 7.64233 24.9544 6.137 23.4 5.57333ZM20.8 5.57333C19.2456 6.137 18.2046 7.64233 18.2 9.33333V12H7.8V9.33333C7.79537 7.64233 6.75445 6.137 5.2 5.57333V5.33333C5.2 3.86057 6.36406 2.66667 7.8 2.66667H18.2C19.6359 2.66667 20.8 3.86057 20.8 5.33333V5.57333Z"/>
</svg>
