<svg width="26" height="32" viewBox="0 0 26 32" xmlns="http://www.w3.org/2000/svg">
<path fill-rule="evenodd" clip-rule="evenodd" d="M12.7125 0.00396255C12.3194 0.0455771 11.9915 0.40581 12 0.786704V8.10834C11.5789 8.10832 11.1399 8.10834 10.725 8.10834C10.3317 8.14405 9.9983 8.4985 10 8.87903V12.6482C4.28314 13.8812 0 18.8035 0 24.6784C0 25.3857 0.0716626 26.0622 0.1875 26.7255C0.246306 27.0834 0.598862 27.3745 0.975 27.3758H7.6125C7.81596 29.9568 10.0706 32 12.8 32C15.5294 32 17.784 29.9568 17.9875 27.3758H24.625C25.0011 27.3758 25.3537 27.0834 25.4125 26.7255C25.5283 26.0622 25.6 25.3857 25.6 24.6784C25.6 18.8035 21.3169 13.8812 15.6 12.6482V8.87903C15.6 8.47551 15.2189 8.10838 14.8 8.10834H13.6V0.786704C13.6098 0.349508 13.1637 -0.0439211 12.7125 0.00396255ZM11.6 9.64974H14V12.4074C13.6065 12.3722 13.203 12.3472 12.8 12.3472C12.397 12.3472 11.9935 12.3722 11.6 12.4074V9.64974ZM12.8 13.8886C18.4487 13.8886 23.1097 17.9055 23.8875 23.1369H1.7125C2.49034 17.9055 7.15125 13.8886 12.8 13.8886Z" />
</svg>
