<svg width="46" height="47" viewBox="0 0 46 47" xmlns="http://www.w3.org/2000/svg">
<path fill-rule="evenodd" clip-rule="evenodd" d="M24.761 18.9811L27.6307 21.795C27.7185 21.8079 27.8044 21.8319 27.886 21.8663C30.407 23.0044 33.3876 22.4538 35.3118 20.4946L45.63 9.98035C46.0902 9.52664 46.1242 8.80517 45.7085 8.31196C45.4841 8.05125 45.1587 7.89417 44.8109 7.87866C44.463 7.86316 44.1244 7.99064 43.8768 8.23031L34.5242 17.386C34.0719 17.8482 33.3378 17.9054 32.8166 17.5189C32.5443 17.3023 32.3785 16.9829 32.3604 16.6398C32.3423 16.2968 32.4736 15.9623 32.7217 15.7194L42.0744 6.5637C42.5465 6.12104 42.6049 5.40227 42.2102 4.89213C41.9889 4.62553 41.6625 4.46324 41.3121 4.44553C40.9617 4.42781 40.62 4.55632 40.3719 4.79918L31.0191 13.9549C30.567 14.4171 29.8328 14.4743 29.3117 14.0879C29.0394 13.8713 28.8736 13.5518 28.8555 13.2087C28.8373 12.8657 28.9686 12.5312 29.2167 12.2882L38.5875 3.11488C39.0571 2.66969 39.1037 1.94771 38.6949 1.44824C38.4753 1.18452 38.1534 1.02233 37.8065 1.00066C37.4597 0.978978 37.1193 1.09977 36.8672 1.334L26.0913 11.4683C24.09 13.3515 23.5275 16.2697 24.69 18.7376C24.724 18.8155 24.7479 18.8973 24.761 18.9811ZM17.5886 29.7303H17.5881C16.5857 29.7233 15.5918 29.549 14.6492 29.2148C13.6402 30.031 12.6458 30.8292 11.6819 31.603L11.6816 31.6033C7.0572 35.3154 3.13299 38.4655 1.64712 40.3537C-0.090857 42.5626 -0.612696 44.7192 0.858618 46.1596C2.32993 47.5998 4.53285 47.089 6.7893 45.3874C8.71805 43.933 11.9351 40.0926 15.7267 35.5663L15.7268 35.5662L15.727 35.5659C17.3904 33.5802 19.1643 31.4626 20.9886 29.3564C20.9251 29.286 20.8634 29.2182 20.7995 29.1472C19.7711 29.5196 18.6851 29.7168 17.5886 29.7303ZM4.51625 2.52549L45.0992 42.3209C47.4682 44.644 44.8571 48.4304 40.8404 45.5788C36.8367 42.7365 32.2246 38.3962 22.2275 27.3059C21.8163 26.7322 21.0572 26.5091 20.3913 26.7663C18.364 27.623 16.0427 27.4919 14.1295 26.4128C12.1943 25.4123 10.868 24.4129 8.25266 21.6795C1.88 15.0192 -0.0739801 9.13698 0.0021243 4.62805C0.0561078 1.43431 2.69299 0.737581 4.51625 2.52549Z"/>
</svg>
