<svg width="20" height="16" viewBox="0 0 20 16" xmlns="http://www.w3.org/2000/svg">
<path fill-rule="evenodd" clip-rule="evenodd" d="M19.5579 4C17.0105 1.42553 13.6211 0 10 0C6.37895 0 2.98947 1.42553 0.442105 4C-0.147368 4.59574 -0.147368 5.53192 0.442105 6.12766C0.736842 6.42553 1.11579 6.57447 1.49474 6.57447C1.87368 6.57447 2.25263 6.42553 2.54737 6.12766C4.52632 4.10638 7.17895 3 10 3C12.8211 3 15.4737 4.10638 17.4526 6.12766C18.0421 6.7234 18.9684 6.7234 19.5579 6.12766C20.1474 5.53192 20.1474 4.57447 19.5579 4ZM4.4 8.02128C3.81053 8.61702 3.81053 9.55319 4.4 10.1489C4.69474 10.4468 5.07368 10.5957 5.45263 10.5957C5.83158 10.5957 6.21053 10.4468 6.50526 10.1489C8.44211 8.19149 11.5789 8.19149 13.4947 10.1277C14.0632 10.7234 15.0105 10.7234 15.6 10.1277C16.1895 9.53191 16.1895 8.59574 15.6 8C12.5053 4.89362 7.49474 4.89362 4.4 8.02128ZM12.3368 13.6596C12.3368 14.9522 11.3 16 10.0211 16C8.74208 16 7.70526 14.9522 7.70526 13.6596C7.70526 12.367 8.74208 11.3191 10.0211 11.3191C11.3 11.3191 12.3368 12.367 12.3368 13.6596Z" />
</svg>
