<svg width="56" height="40" viewBox="0 0 56 40" xmlns="http://www.w3.org/2000/svg">
<path fill-rule="evenodd" clip-rule="evenodd" d="M51.852 1.78031C52.0287 0.676701 53.0888 -0.194568 54.2078 0.0377704C55.3857 0.15394 56.1514 1.19946 55.9747 2.36116L51.0275 38.1994C50.9097 39.2449 50.0262 40 48.9661 40H7.03247C5.97235 40 5.08891 39.1868 4.97112 38.1994L0.0238947 2.36116C-0.152792 1.19946 0.671746 0.212024 1.79076 0.0377704C2.96867 -0.194568 3.9699 0.676701 4.14659 1.78031L8.85823 35.8179H47.1404L51.852 1.78031ZM44.549 32.8556L47.6704 9.97024C47.4937 10.0283 47.317 10.0283 47.0815 10.0283C43.8422 10.0283 40.8974 8.28579 39.3661 5.55581L37.5404 2.1869L35.7146 5.55581C34.1833 8.28579 31.2386 10.0283 28.0582 10.0283C24.76 10.0283 21.8153 8.28579 20.284 5.49773L18.4582 2.07073L16.6325 5.49773C15.1012 8.46004 11.6852 10.0864 8.38707 9.91216L11.5674 32.8556H44.549ZM38.2471 22.4004C39.4839 22.4004 40.4852 23.3878 40.4852 24.6076C40.4852 25.8273 39.4839 26.8148 38.2471 26.8148C37.0103 26.8148 36.0091 25.8273 36.0091 24.6076C36.0091 23.3878 37.0103 22.4004 38.2471 22.4004ZM35.4201 17.2889C35.4201 16.0691 34.4189 15.0817 33.1821 15.0817C31.8864 15.0817 30.8852 16.1272 30.9441 17.2889C30.9441 18.5087 31.9453 19.4961 33.1821 19.4961C34.4189 19.4961 35.4201 18.5087 35.4201 17.2889ZM28.0582 22.4004C29.295 22.4004 30.2962 23.3878 30.2962 24.6076C30.2962 25.8273 29.295 26.8148 28.0582 26.8148C26.8214 26.8148 25.8202 25.8273 25.8202 24.6076C25.8202 23.3878 26.8214 22.4004 28.0582 22.4004ZM25.1723 17.2889C25.1723 16.0691 24.1711 15.0817 22.9343 15.0817C21.6975 15.0817 20.6962 16.1272 20.6962 17.2889C20.6962 18.5087 21.6975 19.4961 22.9343 19.4961C24.1711 19.4961 25.1723 18.5087 25.1723 17.2889ZM17.8693 22.4004C19.1061 22.4004 20.1073 23.3878 20.1073 24.6076C20.1073 25.8273 19.1061 26.8148 17.8693 26.8148C16.6325 26.8148 15.6312 25.8273 15.6312 24.6076C15.6312 23.3878 16.6325 22.4004 17.8693 22.4004Z"/>
</svg>
