<svg width="26" height="26" viewBox="0 0 26 26" fill="none" xmlns="http://www.w3.org/2000/svg">
<path d="M24.3131 4.12403C24.4103 4.12403 24.5076 4.15644 24.5724 4.22126C24.6372 4.28607 24.6696 4.35089 24.702 4.44812C25.253 6.68433 25.3502 8.98536 25.0261 11.254C24.702 13.0041 23.6973 15.694 21.9473 16.6014C20.1972 17.5413 18.7388 16.8283 17.7341 16.3098C17.1508 16.0181 16.7619 15.8236 16.4378 15.8884C16.2433 15.9208 16.1461 16.2125 16.2757 16.3746L17.5721 17.995C17.9286 18.4163 18.0258 18.9349 17.9286 19.421L19.2249 20.5877C19.5814 20.1988 20.1 19.972 20.6833 19.972C21.8176 19.972 22.7251 20.8794 22.7251 22.0137C22.7251 23.148 21.8176 24.0555 20.6833 24.0555C19.549 24.0555 18.6416 23.148 18.6416 22.0137C18.6416 21.9489 18.674 21.8517 18.674 21.7869L17.1508 20.4257C16.9239 20.5553 16.6646 20.5877 16.373 20.5553C15.5303 20.4257 14.6877 20.0368 13.9423 19.6155C13.521 20.9766 15.3359 22.0785 16.1461 22.8563C16.4702 23.148 17.0211 23.6666 16.6322 24.1527C16.4054 24.4444 15.984 24.5416 15.6275 24.6388C15.4655 24.7036 15.3035 24.7361 15.1414 24.7685C14.4284 24.8981 13.7802 25.2222 13.2293 25.6435C13.0996 25.7407 13.0024 25.838 12.9052 25.9028C12.8404 25.9676 12.7432 26 12.6459 26C12.5487 26 12.4515 25.9676 12.3867 25.9028C12.2894 25.8055 12.1922 25.7407 12.0626 25.6435C11.4792 25.2222 10.831 24.9305 10.1505 24.7685C9.98841 24.7036 9.82635 24.6712 9.66431 24.6388C9.34022 24.5416 8.8865 24.4444 8.65964 24.1527C8.27073 23.6666 8.8217 23.1804 9.14579 22.8563C9.98842 22.0785 11.7709 20.9766 11.3496 19.6155C10.6042 20.0368 9.76155 20.4581 8.91892 20.5553C8.62724 20.6201 8.33557 20.5553 8.10871 20.4257L6.55307 21.8193L7.55774 22.7267C7.84942 22.9536 7.84942 23.3749 7.62256 23.6342C7.3957 23.9258 6.97439 23.9258 6.71512 23.699L5.15949 22.3054L4.28446 21.5276C3.99278 21.6572 3.6687 21.7544 3.3122 21.7544C2.9557 21.7544 2.66401 21.4628 2.66401 21.1063C2.66401 20.7498 2.9557 20.4581 3.3122 20.4581L3.40854 20.4515C3.75803 20.4034 4.05759 20.0989 4.05759 19.7127C4.05759 19.3562 4.34929 19.0645 4.70578 19.0645C5.06228 19.0645 5.35395 19.3562 5.35395 19.7127C5.35395 20.0044 5.28912 20.3285 5.15949 20.5877L5.5484 20.9442L7.33087 19.3562C7.23365 18.8701 7.33088 18.3515 7.68738 17.9626L8.98374 16.3422C9.14578 16.1477 9.04855 15.8884 8.82169 15.856C8.4976 15.7912 8.10869 15.9533 7.52533 16.2773C6.52066 16.7959 5.06228 17.4765 3.3122 16.569C1.56212 15.6616 0.52502 12.9716 0.233341 11.2216C-0.155565 8.95295 -0.058331 6.65192 0.525028 4.44812C0.525028 4.35089 0.589849 4.28607 0.654667 4.22126C0.751893 4.15644 0.816717 4.12403 0.913944 4.12403C1.01117 4.12403 1.10837 4.15644 1.17319 4.18885C1.27042 4.22125 1.33524 4.28608 1.36765 4.3833C1.65933 4.90185 2.21028 5.8417 2.72882 6.5871C4.25204 8.7909 5.80768 10.3465 8.01148 10.4114C8.27075 10.4114 8.53001 10.3465 8.75687 10.2493C9.43746 9.92521 9.85877 9.1474 9.76154 8.36959C9.76154 8.0455 9.66434 7.68901 9.46988 7.39733C9.27543 7.10565 9.01614 6.87878 8.69205 6.71674C8.23833 6.48988 7.65499 6.45746 7.13645 6.55469C6.87718 6.5871 6.61789 6.68433 6.39103 6.81396C6.16416 6.9436 6.03452 6.87878 6.00211 6.61951C5.9697 5.93892 6.09935 5.03148 6.71512 4.61016C7.52534 4.05921 8.75689 4.44812 9.50229 4.86943C10.3125 5.29075 10.9931 5.93893 11.5765 6.65192C11.9654 7.13805 12.3218 7.68901 12.6135 8.23996C12.8728 7.6566 13.2617 7.13805 13.6506 6.65192C14.234 5.93893 14.9145 5.29075 15.7248 4.86943C16.5026 4.44812 17.7341 4.05921 18.5119 4.61016C19.1277 5.03148 19.2574 5.93892 19.2249 6.61951C19.1925 6.91119 19.0629 6.9436 18.836 6.81396C18.6092 6.68433 18.3499 6.5871 18.0906 6.55469C17.6045 6.45746 16.9887 6.48988 16.535 6.71674C16.2109 6.87878 15.9516 7.10565 15.7572 7.39733C15.5951 7.68901 15.4655 8.01309 15.4655 8.36959C15.3359 9.1474 15.7572 9.92521 16.4702 10.2493C16.6971 10.3465 16.9563 10.4114 17.2156 10.4114C19.4194 10.3465 20.975 8.7909 22.4982 6.5871C23.0168 5.8417 23.5677 4.90185 23.8594 4.3833C23.9242 4.28608 23.989 4.22125 24.0539 4.18885C24.1187 4.12403 24.2159 4.12403 24.3131 4.12403ZM20.6833 21.2035C20.3592 21.2035 20.0676 21.4304 19.9703 21.722C19.9379 21.7869 19.9379 21.8841 19.9379 21.9489C19.9379 22.3378 20.262 22.6943 20.6833 22.6943C21.0722 22.6943 21.4287 22.3702 21.4287 21.9489C21.4287 21.56 21.1046 21.2035 20.6833 21.2035ZM12.257 0.170146C12.4839 -0.0567155 12.808 -0.0567155 13.0349 0.170146L13.2293 0.364605C13.3589 0.49424 13.4237 0.721101 13.3589 0.915554V0.947963H13.5858C14.6229 0.947963 15.3359 1.95263 15.0118 2.9249L14.6553 4.05922C14.4932 4.54535 14.0395 4.86943 13.521 4.86943H11.7709C11.2524 4.86943 10.7986 4.54535 10.6366 4.05922L10.2801 2.9249C9.95601 1.95263 10.669 0.947963 11.7061 0.947963H11.933V0.915554C11.8681 0.721101 11.9005 0.526649 12.0626 0.364605L12.257 0.170146Z" fill="#C71B1B"/>
</svg>
