<svg width="23" height="24" viewBox="0 0 23 24" fill="none" xmlns="http://www.w3.org/2000/svg">
<path d="M16.5298 3.06966C19.8641 3.898 22.3282 6.91209 22.3282 10.4969C22.3282 14.433 19.3647 17.6667 15.5457 18.1006L16.7008 19.1499C16.8337 19.2706 16.7395 19.477 16.5516 19.477H15.3708L15.2675 23.3039C15.2675 23.6883 14.9562 24 14.5714 24C14.1867 24 13.8754 23.6883 13.8754 23.3039L13.9786 19.477H12.7978C12.6099 19.477 12.5158 19.2706 12.6486 19.1499L13.8036 18.1007C13.0938 18.0206 12.4109 17.8483 11.7755 17.5901C11.7268 17.5692 11.685 17.5484 11.6363 17.5275C11.6711 17.5136 11.7128 17.4997 11.7476 17.4857C15.4508 16.1075 18.096 12.5296 18.096 8.353C18.096 6.40396 17.5252 4.58713 16.5298 3.06966ZM8.35309 0C12.9682 0 16.7062 3.73801 16.7062 8.35309C16.7062 12.7241 13.3586 16.3018 9.08502 16.6713L10.3768 17.8447C10.5096 17.9654 10.4155 18.1718 10.2277 18.1718H9.04681L9.10645 23.1429C9.10645 23.5273 8.79515 23.839 8.4104 23.839C8.02565 23.839 7.71429 23.5273 7.71429 23.1429L7.65466 18.1718H6.47375C6.28589 18.1718 6.19179 17.9654 6.32465 17.8447L7.61615 16.6714C3.34818 16.3024 0 12.7176 0 8.35309C0 3.73801 3.738 0 8.35309 0ZM8.35309 1.39218C4.51762 1.39218 1.39221 4.51762 1.39221 8.35309C1.39221 8.73592 1.70537 9.04918 2.08826 9.04918C2.4711 9.04918 2.78436 8.73593 2.78436 8.35309C2.78436 5.28331 5.28331 2.78436 8.35309 2.78436C8.73593 2.78436 9.04919 2.47112 9.04919 2.08827C9.04919 1.70543 8.73593 1.39218 8.35309 1.39218Z" fill="#FF5500"/>
</svg>
