<svg width="25" height="22" viewBox="0 0 25 22" fill="none" xmlns="http://www.w3.org/2000/svg">
<path d="M2.8363 16.9774C3.00924 16.9159 3.12759 16.7572 3.13538 16.5738C3.37751 10.8726 5.48867 7.27833 7.25684 5.24404C8.01079 4.37656 8.80594 3.55174 9.74463 3.01325C10.0336 2.84745 9.93568 2.4741 9.83063 2.26766C9.59221 1.79913 9.20627 1.71412 8.83539 1.51927C8.10499 1.13552 8.70284 0.622617 9.20191 0.380563C10.899 -0.442811 12.7302 0.219546 13.6527 0.953958C13.871 1.12781 14.1483 1.20396 14.4255 1.17183C14.7359 1.13584 15.0452 1.11766 15.3521 1.11766C18.5671 1.11766 21.2733 1.89018 22.9719 3.83074C24.619 5.7124 25.3147 7.48339 24.8203 10.6223C24.6868 11.4702 24.3191 11.7736 24.3834 12.3326C24.4342 12.7752 24.9114 13.3233 24.5965 13.9187C24.332 14.4167 23.9625 14.5934 23.6991 14.6534C23.2792 14.7498 22.7973 14.6266 22.3754 14.3171C21.9566 14.0086 21.782 13.7784 21.373 13.1658C20.8761 12.4219 20.2898 11.5433 19.4323 10.8417C19.1858 10.6399 18.8246 10.6661 18.6183 10.909C18.1796 11.4258 17.4505 11.939 15.9586 12.1388C15.0856 12.2557 14.3311 12.3014 13.2098 11.9019C12.9989 11.827 12.8564 11.6278 12.8543 11.4029C12.8521 11.178 12.9903 10.9766 13.2002 10.8963C13.7333 10.6942 14.1735 10.4176 14.4629 10.1392C14.653 9.95636 14.4934 9.63761 14.2317 9.67034C10.1804 10.1769 6.26113 12.7432 5.82938 16.6719C5.80824 16.8642 5.91576 17.0455 6.09116 17.127C7.57925 17.8184 8.56766 19.326 8.56766 21.0115C8.56766 21.0115 8.56766 21.0223 8.56766 21.0233C8.56657 21.3917 8.34383 21.7194 8.00006 21.8565C7.65309 21.9957 7.26111 21.9122 7.00299 21.6434C6.4129 21.0287 5.51439 20.6774 4.53659 20.6774C3.27183 20.6774 2.11199 21.2204 1.52405 21.7601C1.35161 21.9176 1.13528 22 0.913605 22C0.792564 22 0.670467 21.9754 0.553741 21.925C0.220663 21.7837 0.00864983 21.471 0.00115967 21.109C7.43866e-05 21.0768 6.10352e-05 21.0436 6.10352e-05 21.0115C6.10352e-05 19.1701 1.15609 17.5753 2.8363 16.9774Z" fill="#1716D5"/>
</svg>
