<svg width="23" height="24" viewBox="0 0 23 24" fill="none" xmlns="http://www.w3.org/2000/svg">
<path fill-rule="evenodd" clip-rule="evenodd" d="M18.2961 3.32309C20.107 3.32309 21.5745 4.79059 21.5745 6.60098C21.5745 6.9133 21.5283 7.21473 21.4464 7.501C21.8911 8.26598 22.1503 9.15217 22.1503 10.1006C22.1503 12.9633 19.8298 15.284 16.9671 15.284C15.725 15.284 14.5855 14.8457 13.6929 14.1169C13.1212 14.4077 12.4761 14.5748 11.7908 14.5748C10.9291 14.5748 10.1287 14.3154 9.46157 13.871C8.7944 14.3152 7.99406 14.5748 7.13233 14.5748C6.5138 14.5748 5.92797 14.4382 5.39902 14.1985C4.90435 14.4372 4.35175 14.5748 3.76565 14.5748C1.686 14.5748 0 12.8891 0 10.8095C0 9.79728 0.401364 8.88079 1.05072 8.20405C0.722722 7.64134 0.531609 6.98906 0.531609 6.29079C0.531609 4.63642 1.58818 3.23191 3.06207 2.70562C3.39857 1.33141 4.6351 0.310194 6.11376 0.310194C6.83144 0.310194 7.49116 0.553405 8.02038 0.957959C8.59212 0.368139 9.3914 0 10.2779 0C11.1656 0 11.9662 0.369468 12.5385 0.960882C13.0154 0.716608 13.555 0.576264 14.128 0.576264C15.8318 0.576264 17.2494 1.79577 17.559 3.40921C17.7961 3.35472 18.0423 3.32309 18.2961 3.32309ZM11.0314 17.6218L13.5411 14.9762C13.9109 15.241 14.3112 15.4573 14.7317 15.6216L12.1629 18.479V24H9.83077V18.513L6.75462 15.2837C7.2841 15.2976 7.81411 15.2186 8.31595 15.0493L9.38502 16.1473L9.96819 15.0062C10.2114 15.0974 10.4623 15.1665 10.718 15.2138L9.96819 16.5928L11.0314 17.6218Z" fill="#20A424"/>
</svg>
