<svg width="21" height="24" viewBox="0 0 21 24" fill="none" xmlns="http://www.w3.org/2000/svg">
<path fill-rule="evenodd" clip-rule="evenodd" d="M5.01132 4C5.01132 2.346 6.36036 1 8.0181 1C9.67585 1 11.0249 2.346 11.0249 4V6H5.01132V4ZM4.00905 6V7.5C4.00905 7.776 4.23356 8 4.51018 8C4.78681 8 5.01132 7.776 5.01132 7.5V6H4.00905ZM12.0272 6L12.0272 7.5C12.0272 7.776 11.8027 8 11.526 8C11.2494 8 11.0249 7.776 11.0249 7.5L11.0249 6H12.0272ZM12.0272 6H15.0339C15.5872 6 16.0362 6.447 16.0362 7V13H7.11106L6.20902 22H1.00226C0.449014 22 0 21.553 0 21V7C0 6.447 0.449014 6 1.00226 6H4.00905V4C4.00905 1.791 5.80411 0 8.0181 0C10.2321 0 12.0272 1.791 12.0272 4V6ZM20.0954 14.497C20.0683 14.224 19.8198 14 19.5441 14H8.51924C8.24361 14 7.99606 14.224 7.96799 14.497L7.06596 23.503C7.03889 23.776 7.24135 24 7.51697 24H20.5464C20.822 24 21.0255 23.776 20.9974 23.503L20.0954 14.497ZM14.0317 20C11.8177 20 10.0226 18.209 10.0226 16C10.0226 15.724 10.2471 15.5 10.5238 15.5C10.8004 15.5 11.0249 15.724 11.0249 16C11.0249 17.654 12.3739 19 14.0317 19C15.6894 19 17.0385 17.654 17.0385 16C17.0385 15.724 17.263 15.5 17.5396 15.5C17.8162 15.5 18.0407 15.724 18.0407 16C18.0407 18.209 16.2457 20 14.0317 20Z" fill="#EF4C8E"/>
</svg>
