<svg width="40" height="40" viewBox="0 0 40 40" xmlns="http://www.w3.org/2000/svg">
<path id="Instagram" fill-rule="evenodd" clip-rule="evenodd" d="M35.2453 0H4.75466C2.12858 0 0 2.12312 0 4.74375V35.2563C0 37.8758 2.12858 40 4.75466 40H35.2453C37.8714 40 40 37.8758 40 35.2563V4.74375C40 2.12312 37.8714 0 35.2453 0ZM28.7505 6.24935C28.7505 5.55983 29.3102 5.00014 29.9997 5.00014H33.7496C34.4402 5.00014 34.9999 5.55983 34.9999 6.24935V10.0003C34.9999 10.6898 34.4402 11.2495 33.7496 11.2495H29.9997C29.3102 11.2495 28.7505 10.6898 28.7505 10.0003V6.24935ZM20.0464 12.3721C24.2948 12.3721 27.7391 15.8089 27.7391 20.0464C27.7391 24.285 24.2948 27.7206 20.0464 27.7206C15.799 27.7206 12.3547 24.285 12.3547 20.0464C12.3547 15.8089 15.799 12.3721 20.0464 12.3721ZM36.2502 34.9999C36.2502 35.6894 35.6905 36.2502 34.9999 36.2502H5.00014C4.30952 36.2502 3.74983 35.6894 3.74983 34.9999V16.2496H8.74997C8.09863 17.1868 7.87824 18.9357 7.87824 20.0464C7.87824 26.7398 13.3377 32.1861 20.0464 32.1861C26.7561 32.1861 32.2156 26.7398 32.2156 20.0464C32.2156 18.9357 32.0574 17.2141 31.25 16.2496H36.2502V34.9999Z"/>
</svg>
