<svg width="35" height="22" viewBox="0 0 35 22" fill="none" xmlns="http://www.w3.org/2000/svg">
<path fill-rule="evenodd" clip-rule="evenodd" d="M22.014 19.0145H12.8623V2.56738H22.014V19.0145Z" fill="#949494"/>
<path fill-rule="evenodd" clip-rule="evenodd" d="M13.4489 10.7895C13.4489 7.45314 15.011 4.4812 17.4436 2.56596C15.6647 1.16544 13.4196 0.329517 10.9797 0.329517C5.20336 0.329517 0.520996 5.01254 0.520996 10.7895C0.520996 16.5665 5.20336 21.2495 10.9797 21.2495C13.4196 21.2495 15.6647 20.4136 17.4436 19.0131C15.011 17.0978 13.4489 14.1259 13.4489 10.7895Z" fill="#737373"/>
<path fill-rule="evenodd" clip-rule="evenodd" d="M34.3569 10.7895C34.3569 16.5665 29.6745 21.2495 23.8982 21.2495C21.4583 21.2495 19.2132 20.4136 17.4336 19.0131C19.8669 17.0978 21.429 14.1259 21.429 10.7895C21.429 7.45314 19.8669 4.4812 17.4336 2.56596C19.2132 1.16544 21.4583 0.329517 23.8982 0.329517C29.6745 0.329517 34.3569 5.01254 34.3569 10.7895Z" fill="#D7D7D7"/>
</svg>
