<svg width="61" height="17" viewBox="0 0 61 17" fill="none" xmlns="http://www.w3.org/2000/svg">
<path opacity="0.602493" fill-rule="evenodd" clip-rule="evenodd" d="M16.1834 0.00742374V0H21.5284V17H16.1834V6.91135H15.738L12.6201 17H8.9083L5.79039 6.90393H5.56769H5.34498V17H0V0H5.34498C5.34498 0 7.69083 -0.0074234 8.31441 2.22707C8.89345 4.3131 10.5415 10.0961 10.5415 10.0961H10.9869C11.0314 9.94018 12.6424 4.28341 13.214 2.2345C13.8363 0.00452007 16.1665 0.00740288 16.1833 0.00742367L16.1834 0.00742374ZM33.4061 1.78166C34.141 0.141048 35.7074 0 35.7074 0H40.7555V17H35.4105V6.90393H34.9651L31.2533 15.2183C30.5183 16.8515 28.8777 17 28.8777 17H23.8297V0H29.1747V10.0961H29.6201L33.4061 1.78166ZM43.131 7.72052V17H48.476V11.5808H54.2664C56.7904 11.5808 58.9284 9.96987 59.7227 7.72052H43.131ZM42.3812 0H54.2664C57.4659 0 60.0568 2.59083 60.0568 5.79039C60.0568 6.19869 60.0196 6.59214 59.938 6.97817H50.7773C50.0052 6.97817 49.2555 6.87424 48.5428 6.68122C45.4026 5.83493 42.9751 3.23668 42.3812 0Z" fill="white"/>
</svg>
