<svg width="55" height="17" viewBox="0 0 55 17" fill="none" xmlns="http://www.w3.org/2000/svg">
<path opacity="0.601958" fill-rule="evenodd" clip-rule="evenodd" d="M0.0534645 0H6.79352C7.70124 0.0376949 8.43505 0.360888 8.68827 1.44453L9.71096 6.93151C10.3191 7.80128 10.7863 8.71096 11.0568 9.59531L11.5071 11.827L15.7343 0.846154H20.3077L13.5104 16.9178L8.94212 16.9231L5.07692 2.84065C5.36 2.98473 5.63999 3.14364 5.91537 3.31562C4.30857 2.01011 2.32933 0.985106 0 0.355971L0.0534645 0ZM39.7692 0.68843C38.8754 0.35615 37.4748 0 35.7254 0C31.2674 0 28.1266 2.22358 28.1 5.4104C28.075 7.7662 30.3422 9.08056 32.0535 9.86478C33.8095 10.6682 34.4003 11.1807 34.3917 11.8984C34.3806 12.9973 32.9892 13.4995 31.6923 13.4995C29.8865 13.4995 28.9273 13.251 27.4455 12.6389L26.864 12.3782L26.2308 16.0484C27.2848 16.506 29.2336 16.9027 31.2566 16.9231C35.9997 16.9231 39.0783 14.7249 39.1135 11.3217C39.1306 9.45681 37.9282 8.03724 35.3255 6.86734C33.7483 6.10888 32.7825 5.60261 32.7926 4.83472C32.7926 4.1532 33.6101 3.42456 35.3766 3.42456C36.852 3.40195 37.9206 3.72041 38.7533 4.05269L39.1576 4.24176L39.7692 0.68843ZM19.4615 16.9231L22.0658 0.846154H26.2308L23.6248 16.9231H19.4615ZM47.0705 0.846154H50.53L54.1538 16.9231H49.9996C49.9996 16.9231 49.5886 15.0753 49.4546 14.5123C49.1086 14.5123 47.6636 14.5104 46.305 14.5086C45.0998 14.507 43.9626 14.5055 43.7211 14.5055C43.5471 14.9407 42.7784 16.9231 42.7784 16.9231H38.0769L44.7261 2.1802C45.1968 1.13244 45.9988 0.846154 47.0705 0.846154ZM46.7933 6.71791C46.7933 6.71791 45.3796 10.288 45.0096 11.215H48.7259C48.5468 10.4097 47.6894 6.56969 47.6894 6.56969L47.3867 5.18264C47.2687 5.49824 47.1047 5.91487 46.9788 6.23469L46.9787 6.23498L46.9784 6.23559C46.8636 6.52739 46.7805 6.73835 46.7933 6.71791Z" fill="white"/>
</svg>
