<svg width="107" height="21" viewBox="0 0 107 21" fill="none" xmlns="http://www.w3.org/2000/svg">
<path opacity="0.600051" fill-rule="evenodd" clip-rule="evenodd" d="M5.76999 1.58278H6.76832V9.17989H5.76999C4.13847 9.17989 2.79959 8.27884 2.79959 5.47881C2.79959 2.58111 4.26032 1.58278 5.76999 1.58278ZM2.2395 17.41L5.20991 10.7383H6.76832V17.41H8.64333V0H5.8431C3.09141 0 0.778161 1.82627 0.778161 5.47881C0.778161 8.08409 1.80086 9.49628 3.33531 10.2755L0.0722656 17.41H2.2395ZM49.4317 4.96746C46.5584 4.96746 45.0727 7.42652 45.0727 11.274C45.0727 15.4623 46.6555 17.5804 49.2853 17.5804C50.4055 17.5804 51.1847 17.215 51.8421 16.6552L51.4038 15.2432C50.9656 15.6327 50.2593 15.998 49.3341 15.998C47.8 15.998 47.0697 14.2444 47.0697 11.1765C47.0697 8.08409 48.0435 6.55025 49.4072 6.55025C50.1864 6.55025 50.9168 6.96391 51.4282 7.40256L51.696 5.60025C51.1603 5.25969 50.5271 4.96746 49.4317 4.96746ZM39.5212 17.41V11.298L42.7596 17.41H44.8292L41.3474 10.9087L44.3912 5.13764H42.4674L39.5212 10.8112V5.13764H37.6218V17.41H39.5212ZM33.726 10.1538H30.5848C30.7066 7.96224 31.1205 6.52567 32.2894 6.52567C33.385 6.52567 33.726 8.05972 33.726 10.1538ZM28.5883 11.7858C28.5883 15.5598 30.1465 17.5804 32.6789 17.5804C33.8964 17.5804 34.9193 17.1909 35.6985 16.5816L35.26 15.1215C34.773 15.4623 33.9207 15.9493 32.8493 15.9493C31.3396 15.9493 30.5604 14.4883 30.5604 11.7123H35.6741V10.6648C35.6741 6.5013 34.3348 4.96746 32.2894 4.96746C29.6841 4.96746 28.5883 7.8406 28.5883 11.7858ZM22.4763 6.67169H24.5948V15.8516H21.332C22.3547 13.2459 22.4763 9.47212 22.4763 6.89121V6.67169ZM25.7394 19.8207H27.4436V15.8516H26.4698V5.13764H20.7719V6.18471C20.7719 9.44775 20.6501 13.2459 19.5303 15.8516H18.7754V19.8207H20.4797V17.41H25.7394V19.8207ZM17.6796 17.41V5.13764H15.8046V10.3482H12.98V5.13764H11.0807V17.41H12.98V11.9072H15.8046V17.41H17.6796ZM63.4672 0.998326H59.6932C59.6199 5.4055 59.4981 8.76581 59.3033 11.274C59.0842 13.8791 58.6945 15.6079 58.0373 16.4121H63.4672V0.998326ZM64.7578 17.41H57.3069L57.1361 20.3077H56.1867V16.4121H56.698C57.5503 15.7054 57.964 13.7576 58.2075 11.274C58.451 8.69311 58.5241 4.84542 58.5974 0H64.6846V16.4121H65.8783V20.3077H64.9279L64.7578 17.41ZM72.6985 10.5673H68.2417C68.3392 7.49963 69.3867 5.84415 70.6772 5.84415C71.9191 5.84415 72.8928 7.30488 72.6985 10.5673ZM73.4037 15.3406C73.4037 15.3406 72.5514 16.6552 70.9203 16.6552C69.1428 16.6552 68.2665 14.8291 68.2178 11.4692H73.7693C74.1586 7.11033 72.7953 4.89415 70.6772 4.89415C68.6071 4.89415 67.0976 7.25614 67.0976 11.274C67.0976 15.2911 68.2913 17.6531 70.8964 17.6531C72.8441 17.6531 73.7693 16.265 73.7693 16.265L73.4037 15.3406ZM81.2708 11.4931H77.0825V17.41H75.9384V5.13764H77.0825V10.5673H81.2708V5.13764H82.4149V17.41H81.2708V11.4931ZM86.264 16.5089V10.5921H87.1163C88.8699 10.5921 89.8924 11.4692 89.8924 13.5385C89.8924 15.6572 88.7235 16.5089 86.9949 16.5089H86.264ZM86.264 5.13764H85.1205V17.41H87.0924C89.4056 17.41 91.0128 16.1194 91.0128 13.5144C91.0128 10.9574 89.5031 9.69124 87.1659 9.69124H86.264V5.13764ZM94.1062 6.08764V17.41H92.9867V5.13764H98.1728V6.08764H94.1062ZM105.748 7.18303C105.698 7.69438 105.65 8.2301 105.65 8.86329V17.41H106.746V5.13764H105.748L101.754 13.7576C101.51 14.2934 101.267 14.8291 101.097 15.3888H101.024L101.028 15.3467C101.075 14.8249 101.122 14.3001 101.122 13.66V5.13764H100.05V17.41H101.024L105.017 8.76582C105.285 8.2301 105.504 7.71875 105.674 7.18303H105.748Z" fill="white"/>
</svg>
