<?xml version="1.0" encoding="utf-8"?><svg xmlns="http://www.w3.org/2000/svg" xmlns:xlink="http://www.w3.org/1999/xlink"><symbol viewBox="0 0 80 28" id="24" xmlns="http://www.w3.org/2000/svg"><path fill-rule="evenodd" clip-rule="evenodd" d="M54.938 0h5.116l-9.989 28H44.95l9.988-28zM17.587 25.028v-4.667H9.414l3.995-3.626c1.413-1.268 2.366-2.403 2.86-3.403.495-1.001.742-2.066.742-3.196 0-1.268-.348-2.382-1.044-3.344-.696-.96-1.665-1.699-2.906-2.214-1.24-.515-2.669-.773-4.283-.773-2.038 0-3.804.387-5.297 1.16C1.988 5.736.827 6.796 0 8.144l4.45 2.437a4.314 4.314 0 011.619-1.5 4.558 4.558 0 012.164-.521c.888 0 1.564.188 2.028.565.464.376.696.901.696 1.575 0 .515-.13 1.026-.393 1.53-.262.506-.777 1.116-1.544 1.829l-7.93 7.282v3.686h16.496zm21.462-3.983h3.148v-4.667h-3.148v-3.537h-5.66v3.537h-4.299l8.627-12.157h-6.205l-9.505 12.99v3.834h11.2v3.983h5.842v-3.983zM80 7.907V4.22H62.444v7.877h5.115v-3.21h5.57l-7.144 16.14h6.539L80 7.907z"/></symbol><symbol fill="none" viewBox="0 0 22 7" id="arrow-left" xmlns="http://www.w3.org/2000/svg"><path fill-rule="evenodd" clip-rule="evenodd" d="M6 7L0 3.5 6 0v3h16v1H6v3z" fill="#11121C"/></symbol><symbol fill="none" viewBox="0 0 22 7" id="arrow-right" xmlns="http://www.w3.org/2000/svg"><path fill-rule="evenodd" clip-rule="evenodd" d="M16 7l6-3.5L16 0v3H0v1h16v3z" fill="#11121C"/></symbol><symbol viewBox="0 0 10 8" id="checkbox" xmlns="http://www.w3.org/2000/svg"><path fill-rule="evenodd" clip-rule="evenodd" d="M8.937 0a1.01 1.01 0 00-.711.33C6.59 2.057 5.097 3.75 3.526 5.442L1.68 3.882a.992.992 0 00-1.022-.165 1.08 1.08 0 00-.646.852 1.12 1.12 0 00.376 1.015l2.584 2.179a.995.995 0 001.378-.085c1.859-1.964 3.524-3.892 5.34-5.81.304-.315.394-.793.227-1.205A1.032 1.032 0 008.937 0z"/></symbol><symbol fill="none" viewBox="0 0 10 6" id="chevron-down" xmlns="http://www.w3.org/2000/svg"><path fill-rule="evenodd" clip-rule="evenodd" d="M1.167 0L0 1.135 5 6l5-4.865L8.833 0 5 3.73 1.167 0z" fill="#11121C"/></symbol><symbol viewBox="0 0 12 12" id="close" xmlns="http://www.w3.org/2000/svg"><path d="M4.848 6L.238 1.39A.815.815 0 111.392.24L6 4.848l4.61-4.61a.815.815 0 011.151 1.153L7.152 6l4.61 4.61a.815.815 0 11-1.153 1.151L6 7.152l-4.61 4.61A.815.815 0 01.24 10.608L4.848 6z" fill-rule="evenodd"/></symbol><symbol viewBox="0 0 43 56" id="ico-bar" xmlns="http://www.w3.org/2000/svg"><path fill-rule="evenodd" clip-rule="evenodd" d="M32.18 0h4.174c.546 0 .966.477.888 1.008l-.47 3.183h-5.01l-.47-3.183A.887.887 0 0132.18 0zM43 53.722V30.948c0-2.211-.78-4.355-2.208-6.064L38.218 21.8a4.456 4.456 0 01-1.04-2.857V9.586h-5.822v9.358a4.455 4.455 0 01-1.04 2.857l-2.574 3.083a9.459 9.459 0 00-2.208 6.064v22.774c0 1.258 1.038 2.278 2.318 2.278h12.83C41.962 56 43 54.98 43 53.722zm-2.557-10.38c0 1.01-.833 1.828-1.86 1.828H29.95c-1.027 0-1.86-.818-1.86-1.827v-7.1c0-1.009.833-1.826 1.86-1.826h8.633c1.027 0 1.86.817 1.86 1.827v7.099zM31.16 8.127H37.373c.696 0 1.26-.554 1.26-1.238 0-.683-.564-1.237-1.26-1.237H31.16a1.25 1.25 0 00-1.26 1.237 1.25 1.25 0 001.26 1.238zM2.376 36.816c1.29.62 2.738.985 3.951 1.2v.003c.304.064.57.198.797.362.663.48 1.024 1.266 1.024 2.075v11.685c0 1.501-1.36 2.435-2.582 2.971-.32.14-.218.609.133.609H12.264c.35 0 .452-.468.133-.609-1.221-.536-2.582-1.47-2.582-2.971V40.456c0-.809.36-1.595 1.024-2.075.227-.164.493-.298.797-.362v-.002c1.213-.216 2.662-.58 3.951-1.201a4.177 4.177 0 002.324-4.416c-.45-2.834-1.396-8.148-2.901-13.67a1.102 1.102 0 00-1.068-.802H4.02c-.5 0-.939.328-1.068.802C1.448 24.252.503 29.566.052 32.4a4.177 4.177 0 002.324 4.416zm1.358-10.584a.918.918 0 01.901-.723H13.328c.436 0 .813.303.9.723.742 3.543.892 5.54.902 6.734.007.858-.44 1.674-1.207 2.087-1.855.998-4.942.814-4.942.814s-3.086.184-4.941-.814c-.767-.413-1.214-1.229-1.207-2.087.01-1.194.16-3.191.901-6.734z"/></symbol><symbol viewBox="0 0 59 54" id="ico-location" xmlns="http://www.w3.org/2000/svg"><path fill-rule="evenodd" clip-rule="evenodd" d="M32.633 35.119a34.7 34.7 0 01-8.786-10.422 28.608 28.608 0 01-1.35-2.917 23.988 23.988 0 01-1.788-9.006c0-4.564 2.392-8.78 6.276-11.063a12.361 12.361 0 0112.55 0c3.884 2.282 6.276 6.5 6.276 11.063a23.984 23.984 0 01-1.799 9.006 26.453 26.453 0 01-1.474 3.109 34.674 34.674 0 01-8.671 10.23l-.617.458-.617-.458zm6.415-24.868c-.985-2.38-3.292-3.92-5.84-3.898-1.65 0-3.233.664-4.4 1.845a6.34 6.34 0 00-1.823 4.455c-.021 2.58 1.5 4.915 3.85 5.912a6.22 6.22 0 006.863-1.367 6.41 6.41 0 001.35-6.947zm-10.13 29.137c-.78 0-1.412.558-1.412 1.246s.632 1.246 1.412 1.246h8.472c.78 0 1.412-.558 1.412-1.246s-.632-1.246-1.412-1.246h-8.472zm25.725-17.957H48.49a34.016 34.016 0 01-1.6 3.738h7.791a.656.656 0 01.665.635v23.823a.656.656 0 01-.665.635H5.45a1.733 1.733 0 01-1.675-1.64 1.74 1.74 0 011.471-1.83 1.724 1.724 0 011.927 1.327 1.821 1.821 0 002.153 1.383 1.849 1.849 0 001.588-1.831V25.169h8.615a34.016 34.016 0 01-1.6-3.738h-7.15c-.344-2.718-2.609-4.767-5.315-4.808-2.707-.04-5.031 1.94-5.454 4.646-.013.14-.013.283 0 .424v.398a2.069 2.069 0 000 .287V48.617a2.068 2.068 0 000 .287C.207 51.737 2.509 53.949 5.314 54h49.33c2.394.007 4.342-1.95 4.356-4.373V25.804c-.014-2.424-1.962-4.38-4.357-4.373zm-52.258 27.1a.62.62 0 01-.615.622.62.62 0 01-.616-.623V22.241a.63.63 0 010-.15v-.399a.303.303 0 000-.087 4.28 4.28 0 012.462-3.339v27.847a2.99 2.99 0 00-1.231 2.417z"/></symbol><symbol viewBox="0 0 63 56" id="ico-parking" xmlns="http://www.w3.org/2000/svg"><path fill-rule="evenodd" clip-rule="evenodd" d="M61.469 0H46.268c-.863 0-1.593.721-1.593 1.574V16.59c0 .853.73 1.574 1.593 1.574h5.709v37.05c0 .458.331.786.796.786h2.257c.465 0 .797-.328.797-.787v-37.05h5.576c.863 0 1.593-.72 1.593-1.573V1.574C63.062.72 62.332 0 61.469 0zm-7.9 11.607h-1.46v2.754c0 .196-.133.327-.332.327h-1.526c-.2 0-.332-.13-.332-.327V4c0-.328.265-.59.597-.59h2.92c2.258 0 4.183 1.77 4.25 4 .132 2.36-1.793 4.197-4.116 4.197zm0-6.033h-1.46v3.934h1.46c1.13 0 1.992-.852 1.992-1.967 0-1.115-.863-1.967-1.991-1.967zM41.888 29.049h3.12c1.327 0 2.456 1.115 2.588 2.36v1.378c0 1.377-1.128 2.426-2.456 2.426h-.863c.465 2.23.73 4.46.73 6.754v11.607c0 1.377-1.128 2.426-2.456 2.426h-4.049a2.436 2.436 0 01-2.456-2.426v-3.738H11.55v3.738C11.55 54.95 10.422 56 9.094 56H5.045a2.436 2.436 0 01-2.456-2.426V42.033c0-2.295.265-4.525.73-6.754h-.863A2.436 2.436 0 010 32.852v-1.377c0-1.377 1.128-2.426 2.456-2.426H5.51L7.5 22.885c1.062-3.213 3.983-5.311 7.368-5.311h17.658c3.385 0 6.372 2.164 7.368 5.311l1.992 6.164zm-29.74-4.656l-2.323 7.148c-.132.328.133.656.465.656h26.818c.332 0 .598-.328.465-.656l-2.324-7.148c-.398-1.18-1.46-1.967-2.721-1.967H14.869c-1.26 0-2.323.787-2.721 1.967zm2.789 18.886h-4.912c-.797 0-1.527-.656-1.527-1.509v-2.295c0-.918.796-1.573 1.726-1.442l4.58.721c.597.066 1.062.525 1.195 1.18l.332 1.574c.265.918-.398 1.77-1.394 1.77zm22.437.065c.863 0 1.526-.721 1.526-1.508h-.066v-2.295c0-.918-.797-1.574-1.726-1.443l-4.58.722A1.562 1.562 0 0031.332 40L31 41.574c-.2.918.531 1.77 1.46 1.77h4.913z"/></symbol><symbol viewBox="0 0 46 47" id="ico-restraurant" xmlns="http://www.w3.org/2000/svg"><path fill-rule="evenodd" clip-rule="evenodd" d="M24.761 18.981l2.87 2.814c.087.013.173.037.255.071 2.521 1.138 5.502.588 7.426-1.371L45.63 9.98c.46-.453.494-1.175.078-1.668a1.263 1.263 0 00-1.832-.082l-9.352 9.156a1.308 1.308 0 01-1.707.133 1.2 1.2 0 01-.095-1.8l9.352-9.155c.473-.443.53-1.162.136-1.672a1.254 1.254 0 00-1.838-.093l-9.353 9.156a1.308 1.308 0 01-1.707.133 1.2 1.2 0 01-.095-1.8l9.37-9.173c.47-.445.517-1.167.108-1.667a1.265 1.265 0 00-1.828-.114L26.091 11.468c-2.001 1.883-2.564 4.802-1.401 7.27.034.078.058.16.071.243zm-7.172 10.75a8.985 8.985 0 01-2.94-.516c-1.009.816-2.003 1.614-2.967 2.388-4.625 3.712-8.549 6.862-10.035 8.75C-.09 42.564-.613 44.72.86 46.16c1.47 1.44 3.674.929 5.93-.773 1.93-1.454 5.146-5.294 8.938-9.82v-.001a492.1 492.1 0 015.262-6.21l-.19-.209a9.787 9.787 0 01-3.21.583zM4.516 2.524L45.1 42.321c2.37 2.323-.242 6.11-4.259 3.258-4.003-2.843-8.615-7.183-18.613-18.273a1.568 1.568 0 00-1.836-.54 7.125 7.125 0 01-6.261-.353c-1.936-1-3.262-2-5.877-4.733C1.88 15.02-.074 9.137.003 4.628c.053-3.194 2.69-3.89 4.513-2.103z"/></symbol><symbol viewBox="0 0 41 49" id="ico-subway" xmlns="http://www.w3.org/2000/svg"><path fill-rule="evenodd" clip-rule="evenodd" d="M9.04 40.206c3.82.006 7.64.001 11.46.002 3.82 0 7.64.004 11.46-.002 5.904-.01 9.971-4.982 8.855-10.75-1.519-7.854-3-15.714-4.483-23.574C35.692 2.49 32.886.02 29.425 0h-17.85c-3.46.02-6.266 2.49-6.907 5.882-1.484 7.86-2.964 15.72-4.483 23.574-1.116 5.768 2.951 10.74 8.855 10.75zm26.381-7.927c-.004 1.733-1.392 3.082-3.155 3.065a3.079 3.079 0 01-3.068-3.155c.026-1.697 1.409-3.038 3.126-3.032 1.752.007 3.102 1.367 3.097 3.122zM15.086 3.589h10.828c.877 0 1.589.707 1.589 1.579 0 .87-.712 1.578-1.589 1.578H15.086a1.584 1.584 0 01-1.589-1.578c0-.873.712-1.578 1.589-1.578zM6.899 22.624c.52-2.737 1.085-5.466 1.635-8.197.157-.777.315-1.554.49-2.326.263-1.152.845-1.59 2.046-1.633h18.86c1.2.043 1.782.48 2.046 1.633.176.773.333 1.55.49 2.326.55 2.731 1.116 5.46 1.635 8.196.288 1.523-.451 2.968-2.02 2.968H8.919c-1.569 0-2.308-1.445-2.02-2.968zm1.777 6.534c1.717-.006 3.1 1.335 3.126 3.032a3.079 3.079 0 01-3.068 3.155c-1.763.017-3.15-1.332-3.155-3.065-.005-1.755 1.345-3.115 3.097-3.122zm18.536 13.27l1.41 1.315H12.379l1.465-1.316H9.139L1.74 49h4.72l2.4-2.132h23.278L34.538 49h4.72l-7.396-6.574h-4.65z"/></symbol><symbol viewBox="0 0 56 40" id="ico-wash" xmlns="http://www.w3.org/2000/svg"><path fill-rule="evenodd" clip-rule="evenodd" d="M51.852 1.78C52.029.677 53.089-.195 54.208.038c1.178.116 1.943 1.161 1.767 2.323L51.028 38.2C50.91 39.245 50.026 40 48.966 40H7.032c-1.06 0-1.943-.813-2.06-1.8L.023 2.36C-.153 1.2.672.212 1.79.038 2.969-.195 3.97.677 4.147 1.78l4.711 34.038H47.14L51.852 1.78zm-7.303 31.076L47.67 9.97c-.176.058-.353.058-.589.058-3.239 0-6.184-1.742-7.715-4.472l-1.826-3.37-1.825 3.37a8.816 8.816 0 01-7.657 4.472c-3.298 0-6.243-1.742-7.774-4.53L18.458 2.07l-1.825 3.427C15.1 8.46 11.684 10.086 8.386 9.912l3.18 22.944H44.55zM38.247 22.4c1.237 0 2.238.988 2.238 2.208 0 1.22-1.001 2.207-2.238 2.207s-2.238-.988-2.238-2.207c0-1.22 1.001-2.208 2.238-2.208zM35.42 17.29c0-1.22-1.001-2.207-2.238-2.207-1.296 0-2.297 1.045-2.238 2.207 0 1.22 1.001 2.207 2.238 2.207s2.238-.987 2.238-2.207zM28.058 22.4c1.237 0 2.238.988 2.238 2.208 0 1.22-1.001 2.207-2.238 2.207s-2.238-.988-2.238-2.207c0-1.22 1.001-2.208 2.238-2.208zm-2.886-5.111c0-1.22-1-2.207-2.238-2.207-1.236 0-2.238 1.045-2.238 2.207 0 1.22 1.002 2.207 2.238 2.207 1.237 0 2.238-.987 2.238-2.207zM17.87 22.4c1.237 0 2.238.988 2.238 2.208 0 1.22-1 2.207-2.238 2.207-1.236 0-2.238-.988-2.238-2.207 0-1.22 1.002-2.208 2.238-2.208z"/></symbol><symbol viewBox="0 0 40 40" id="instagram" xmlns="http://www.w3.org/2000/svg"><path fill-rule="evenodd" clip-rule="evenodd" d="M35.245 0H4.755A4.749 4.749 0 000 4.744v30.512A4.75 4.75 0 004.755 40h30.49A4.75 4.75 0 0040 35.256V4.744A4.749 4.749 0 0035.245 0zm-6.494 6.25C28.75 5.56 29.31 5 30 5h3.75c.69 0 1.25.56 1.25 1.25V10c0 .69-.56 1.25-1.25 1.25H30c-.69 0-1.25-.56-1.25-1.25V6.25zm-8.705 6.122c4.249 0 7.693 3.437 7.693 7.674 0 4.239-3.444 7.675-7.693 7.675-4.247 0-7.691-3.436-7.691-7.675 0-4.237 3.444-7.674 7.691-7.674zM36.25 35c0 .69-.56 1.25-1.25 1.25H5c-.69 0-1.25-.56-1.25-1.25V16.25h5c-.651.937-.872 2.686-.872 3.796 0 6.694 5.46 12.14 12.168 12.14 6.71 0 12.17-5.446 12.17-12.14 0-1.11-.159-2.832-.966-3.796h5V35z"/></symbol><symbol fill="none" viewBox="0 0 35 22" id="mastercard" xmlns="http://www.w3.org/2000/svg"><path fill-rule="evenodd" clip-rule="evenodd" d="M22.014 19.015h-9.152V2.567h9.152v16.448z" fill="#949494"/><path fill-rule="evenodd" clip-rule="evenodd" d="M13.449 10.79c0-3.337 1.562-6.309 3.995-8.224A10.414 10.414 0 0010.98.33C5.203.33.52 5.013.52 10.79c0 5.777 4.682 10.46 10.459 10.46 2.44 0 4.685-.836 6.464-2.237a10.443 10.443 0 01-3.995-8.224z" fill="#737373"/><path fill-rule="evenodd" clip-rule="evenodd" d="M34.357 10.79c0 5.777-4.683 10.46-10.459 10.46-2.44 0-4.685-.836-6.464-2.237a10.441 10.441 0 003.995-8.224 10.44 10.44 0 00-3.995-8.223A10.417 10.417 0 0123.898.33c5.776 0 10.459 4.683 10.459 10.46z" fill="#D7D7D7"/></symbol><symbol fill="none" viewBox="0 0 61 17" id="mir" xmlns="http://www.w3.org/2000/svg"><path opacity=".602" fill-rule="evenodd" clip-rule="evenodd" d="M16.183.007V0h5.345v17h-5.345V6.911h-.445L12.62 17H8.908L5.79 6.904h-.445V17H0V0h5.345s2.346-.007 2.97 2.227c.578 2.086 2.226 7.87 2.226 7.87h.446c.044-.157 1.655-5.814 2.227-7.862.622-2.23 2.952-2.228 2.97-2.228zm17.223 1.775C34.141.14 35.707 0 35.707 0h5.048v17H35.41V6.904h-.445l-3.712 8.314C30.518 16.852 28.878 17 28.878 17H23.83V0h5.345v10.096h.445l3.786-8.314zm9.725 5.939V17h5.345v-5.42h5.79a5.783 5.783 0 005.457-3.86H43.13zM42.381 0h11.885c3.2 0 5.79 2.59 5.79 5.79 0 .409-.036.802-.118 1.188h-9.16A8.54 8.54 0 0142.38 0z" fill="#fff"/></symbol><symbol fill="none" viewBox="0 0 55 17" id="visa" xmlns="http://www.w3.org/2000/svg"><path opacity=".602" fill-rule="evenodd" clip-rule="evenodd" d="M.053 0h6.74c.908.038 1.642.36 1.895 1.445l1.023 5.487c.608.87 1.075 1.779 1.346 2.663l.45 2.232L15.734.847h4.574l-6.798 16.07-4.568.006L5.077 2.841c.283.144.563.303.838.475C4.31 2.01 2.33.986 0 .356L.053 0zM39.77.688C38.875.356 37.475 0 35.725 0c-4.458 0-7.598 2.224-7.625 5.41-.025 2.356 2.242 3.67 3.953 4.455 1.757.803 2.347 1.316 2.339 2.033-.011 1.1-1.403 1.601-2.7 1.601-1.805 0-2.765-.248-4.247-.86l-.581-.26-.633 3.67c1.054.457 3.003.854 5.026.874 4.743 0 7.821-2.198 7.857-5.601.017-1.865-1.186-3.285-3.788-4.455-1.578-.758-2.544-1.264-2.533-2.032 0-.682.817-1.41 2.584-1.41a8.391 8.391 0 013.376.628l.405.189.611-3.554zM19.462 16.923L22.066.846h4.165l-2.606 16.077h-4.163zM47.07.846h3.459l3.624 16.077H50s-.411-1.848-.545-2.41a5101.864 5101.864 0 01-5.734-.008c-.174.436-.943 2.418-.943 2.418h-4.701l6.65-14.743c.47-1.048 1.272-1.334 2.344-1.334zm-.278 5.872s-1.413 3.57-1.783 4.497h3.716L47.689 6.57l-.302-1.387c-.118.315-.282.732-.408 1.052-.115.292-.198.503-.186.483z" fill="#fff"/></symbol><symbol viewBox="0 0 20 11" id="vk" xmlns="http://www.w3.org/2000/svg"><path fill-rule="evenodd" clip-rule="evenodd" d="M19.894 9.934a1.317 1.317 0 00-.068-.125c-.347-.603-1.01-1.342-1.989-2.219l-.02-.02-.01-.01-.011-.01h-.01c-.445-.408-.726-.683-.844-.823-.216-.268-.264-.539-.146-.813.083-.208.396-.646.937-1.315.285-.355.51-.64.677-.853 1.2-1.54 1.722-2.523 1.562-2.952l-.062-.1c-.042-.06-.15-.115-.323-.165-.174-.05-.396-.059-.666-.025l-3 .02a.403.403 0 00-.208.005l-.135.03-.052.025-.042.03a.455.455 0 00-.114.105.682.682 0 00-.104.176c-.327.81-.698 1.563-1.114 2.259-.257.415-.493.774-.709 1.079a5.218 5.218 0 01-.541.672c-.146.144-.278.26-.396.346-.118.088-.208.124-.27.111a8 8 0 01-.178-.04.678.678 0 01-.234-.246 1.075 1.075 0 01-.12-.392 4.166 4.166 0 01-.036-.406 8.09 8.09 0 01.005-.482c.007-.208.01-.348.01-.422 0-.254.006-.53.016-.828l.026-.707c.007-.174.01-.359.01-.553A2.24 2.24 0 0011.7.83a1.522 1.522 0 00-.109-.322.547.547 0 00-.213-.24 1.229 1.229 0 00-.35-.136c-.367-.08-.836-.124-1.405-.13C8.33-.013 7.5.067 7.133.241a1.396 1.396 0 00-.396.301c-.125.148-.142.228-.052.241.417.06.712.204.885.432l.063.12c.049.087.097.241.146.462.048.221.08.465.093.733.035.488.035.907 0 1.255-.034.348-.067.619-.099.813a1.584 1.584 0 01-.14.472 1.97 1.97 0 01-.125.22.176.176 0 01-.052.05.806.806 0 01-.281.05c-.098 0-.216-.046-.354-.14a2.466 2.466 0 01-.432-.386 5.173 5.173 0 01-.506-.688A11.869 11.869 0 015.3 3.133l-.166-.291c-.104-.187-.247-.46-.427-.818-.18-.358-.34-.705-.48-1.04a.665.665 0 00-.249-.32l-.052-.03a.722.722 0 00-.167-.086 1.137 1.137 0 00-.24-.065L.668.503c-.292 0-.49.064-.594.19L.031.755A.315.315 0 000 .914c0 .074.02.165.063.272.416.943.869 1.853 1.358 2.73.49.877.915 1.583 1.276 2.118.36.535.729 1.04 1.104 1.516.375.475.623.78.744.913.122.134.217.234.287.301l.26.241c.167.16.411.353.734.577.323.225.68.445 1.073.663.392.217.848.395 1.37.532.52.137 1.026.192 1.52.166h1.197c.243-.02.427-.094.552-.221l.041-.05a.649.649 0 00.078-.186.984.984 0 00.037-.276 3.195 3.195 0 01.067-.778c.052-.23.111-.405.178-.522a1.284 1.284 0 01.4-.441.695.695 0 01.084-.036c.166-.053.362-.001.588.156.226.157.438.352.636.582.197.231.435.49.713.778.277.288.52.502.729.643l.208.12c.139.08.32.154.541.221.222.067.417.084.584.05l2.665-.04c.264 0 .469-.042.614-.125.146-.084.233-.176.26-.276.029-.1.03-.215.006-.342a1.226 1.226 0 00-.073-.266z"/></symbol><symbol fill="none" viewBox="0 0 107 21" id="yandex" xmlns="http://www.w3.org/2000/svg"><path opacity=".6" fill-rule="evenodd" clip-rule="evenodd" d="M5.77 1.583h.998V9.18H5.77c-1.632 0-2.97-.901-2.97-3.701 0-2.898 1.46-3.896 2.97-3.896zM2.24 17.41l2.97-6.672h1.558v6.672h1.875V0h-2.8C3.091 0 .778 1.826.778 5.479c0 2.605 1.023 4.017 2.557 4.796L.072 17.41H2.24zM49.431 4.967c-2.874 0-4.36 2.46-4.36 6.307 0 4.188 1.584 6.306 4.213 6.306 1.12 0 1.9-.365 2.557-.925l-.438-1.412c-.438.39-1.145.755-2.07.755-1.534 0-2.264-1.754-2.264-4.821 0-3.093.974-4.627 2.337-4.627.78 0 1.51.414 2.021.853l.268-1.803c-.536-.34-1.169-.633-2.264-.633zm-9.91 12.443v-6.112l3.238 6.112h2.07l-3.483-6.501 3.044-5.771h-1.924l-2.946 5.673V5.138h-1.9V17.41h1.9zm-5.796-7.256h-3.141c.122-2.192.535-3.628 1.704-3.628 1.096 0 1.437 1.534 1.437 3.628zm-5.138 1.632c0 3.774 1.558 5.794 4.09 5.794 1.218 0 2.241-.39 3.02-.998l-.438-1.46c-.487.34-1.34.827-2.41.827-1.51 0-2.29-1.46-2.29-4.237h5.114v-1.047c0-4.164-1.34-5.698-3.385-5.698-2.605 0-3.7 2.874-3.7 6.819zm-6.112-5.114h2.119v9.18h-3.263c1.023-2.606 1.144-6.38 1.144-8.96v-.22zM25.74 19.82h1.705v-3.97h-.974V5.139h-5.698v1.047c0 3.263-.122 7.06-1.242 9.667h-.755v3.969h1.705V17.41h5.26v2.41zm-8.06-2.411V5.138h-1.874v5.21H12.98v-5.21h-1.9V17.41h1.9v-5.503h2.825v5.503h1.875zM63.468.998h-3.774c-.073 4.407-.195 7.768-.39 10.276-.219 2.605-.608 4.334-1.266 5.138h5.43V.998zm1.29 16.412h-7.45l-.17 2.898h-.95v-3.896h.511c.852-.707 1.266-2.654 1.51-5.138.243-2.58.316-6.429.39-11.274h6.087v16.412h1.193v3.896h-.95l-.17-2.898zm7.941-6.843h-4.456c.097-3.067 1.145-4.723 2.435-4.723 1.242 0 2.216 1.46 2.021 4.723zm.706 4.774s-.853 1.314-2.484 1.314c-1.777 0-2.654-1.826-2.702-5.186h5.551c.39-4.359-.974-6.575-3.092-6.575-2.07 0-3.58 2.362-3.58 6.38 0 4.017 1.194 6.38 3.8 6.38 1.947 0 2.872-1.389 2.872-1.389l-.365-.924zm7.867-3.848h-4.189v5.917h-1.144V5.138h1.144v5.43h4.189v-5.43h1.144V17.41H81.27v-5.917zm4.993 5.016v-5.917h.852c1.754 0 2.776.877 2.776 2.947 0 2.118-1.168 2.97-2.897 2.97h-.731zm0-11.371h-1.143V17.41h1.971c2.314 0 3.92-1.29 3.92-3.896 0-2.557-1.509-3.823-3.846-3.823h-.902V5.138zm7.842.95V17.41h-1.12V5.138h5.187v.95h-4.067zm11.642 1.095c-.05.511-.098 1.047-.098 1.68v8.547h1.096V5.138h-.998l-3.994 8.62c-.244.535-.487 1.071-.657 1.63h-.073l.004-.041a17.74 17.74 0 00.094-1.687V5.138h-1.072V17.41h.974l3.993-8.644a10.83 10.83 0 00.657-1.583h.074z" fill="#fff"/></symbol><symbol viewBox="0 0 40 28" id="youtube" xmlns="http://www.w3.org/2000/svg"><path fill-rule="evenodd" clip-rule="evenodd" d="M32.689 27.698c-6.006.403-19.383.403-25.38 0C.806 27.26.049 24.142 0 14 .049 3.839.814.74 7.309.302c5.997-.403 19.377-.403 25.38 0C39.194.74 39.949 3.858 40 14c-.051 10.161-.814 13.26-7.311 13.698zM14.546 7l14.545 6.988L14.545 21V7z"/></symbol></svg>