<svg width="62" height="16" viewBox="0 0 62 16" fill="none" xmlns="http://www.w3.org/2000/svg">
<path fill-rule="evenodd" clip-rule="evenodd" d="M58.2036 12.445C57.0715 13.6145 55.6448 14.1996 53.9195 14.1996C52.195 14.1996 50.7674 13.6145 49.6361 12.445C48.5048 11.2762 47.9399 9.79352 47.9399 7.99771C47.9399 6.20267 48.5048 4.71695 49.6361 3.54286C50.7674 2.36952 52.195 1.7821 53.9195 1.7821C55.6532 1.7821 57.0838 2.36724 58.2105 3.53676C59.3372 4.70629 59.8998 6.19276 59.8998 7.99771C59.8998 9.79352 59.3349 11.2762 58.2036 12.445ZM48.2247 13.7227C49.7219 15.229 51.6201 15.9817 53.9195 15.9817C56.228 15.9817 58.1362 15.229 59.6434 13.7227C61.1498 12.2171 61.9029 10.3086 61.9029 7.99771C61.9029 5.6861 61.1475 3.776 59.6357 2.2659C58.1248 0.755048 56.2196 0 53.9195 0C51.6293 0 49.7333 0.752762 48.2316 2.25905C46.729 3.76381 45.9781 5.67695 45.9781 7.99771C45.9781 10.3086 46.7267 12.2171 48.2247 13.7227ZM7.99723 12.5556L13.9217 0.331581H16.0358L8.59504 15.5803H7.39943L0 0.331581H2.07202L7.99723 12.5556ZM14.4079 15.5803L21.9321 0.331581H23.5173L31.1249 15.5803H29.0529L26.9671 11.4782H18.483L16.4516 15.5803H14.4079ZM26.1182 9.69615L22.7251 2.94187L19.3587 9.69615H26.1182ZM33.462 0.331581V15.5803H45.3959V13.8264H35.3672V0.331581H33.462Z" fill="white"/>
</svg>
