<?xml version="1.0" encoding="utf-8"?>
<!-- Generator: Adobe Illustrator 23.0.6, SVG Export Plug-In . SVG Version: 6.00 Build 0)  -->
<svg version="1.1" id="Слой_1" xmlns="http://www.w3.org/2000/svg" xmlns:xlink="http://www.w3.org/1999/xlink" x="0px" y="0px"
	 viewBox="0 0 426.9 149.6" style="enable-background:new 0 0 426.9 149.6;" xml:space="preserve">
<style type="text/css">
	.st0{fill:#FFFFFF;}
	.st1{fill:none;}
</style>
<g>
	<path class="st0" d="M83.9,101.4c-0.1,0-0.1,0-0.2,0c-23.6-0.3-47.6-0.3-71.3,0c-0.1,0-0.2,0-0.3,0c-0.1,0-0.2,0-0.4,0h0
		c-1,0-1.8-0.1-2.7-0.3l-0.1,0L8.7,101l0,0l-0.1-0.1H8.3l-0.1-0.1l-0.1-0.1c-0.4-0.1-0.8-0.3-1.2-0.5l-0.2,0.2l-0.6-0.6
		c-1.2-0.7-2.2-1.7-3-2.8l-0.1,0L3,96.8l-0.2-0.2v-0.1c-0.3-0.4-0.5-0.9-0.7-1.4H1.7l0-0.8c-0.4-1.1-0.6-2.2-0.6-3.3l0.1-1.6
		l0.1-0.1c0.3-2,1.1-3.8,2.4-5.3l0.1-0.2l0.3-0.2l0.2-0.2l0.1,0c12.1-12.1,24.4-23.7,36.4-35c5.7-5.4,11.6-10.9,17.5-16.5H34.8
		c-5.7,0-10.4-4.7-10.4-10.4s4.7-10.4,10.4-10.4h49c4.2,0,8,2.5,9.6,6.4c0.5,1.3,0.8,2.6,0.8,4c0,2.8-1.1,5.4-3,7.4l0,0
		C79.2,40.9,66.9,52.4,55.1,63.6c-5.8,5.4-11.7,11-17.7,16.7c15.7-0.1,31.3,0,46.6,0.2c2.8,0,5.4,1.2,7.3,3.1c1.9,2,3,4.6,3,7.4
		c0,2.8-1.2,5.4-3.2,7.4C89.1,100.3,86.6,101.4,83.9,101.4L83.9,101.4z M47.8,99.2c12,0,24,0.1,35.9,0.2c2.3,0,4.4-0.8,6-2.4
		c1.7-1.6,2.6-3.7,2.6-6c0-2.3-0.8-4.4-2.4-6.1c-1.6-1.6-3.7-2.5-6-2.6c-16-0.2-32.5-0.3-48.9-0.2l-2.4,0l1.7-1.6
		c6.5-6.2,13.1-12.4,19.4-18.4c11.9-11.2,24.1-22.7,36-34.6l0.1-0.1c1.6-1.6,2.5-3.7,2.5-6c0-1.1-0.2-2.2-0.6-3.3
		c-1.3-3.2-4.4-5.3-7.9-5.3h-49c-4.7,0-8.5,3.8-8.5,8.5s3.8,8.5,8.5,8.5h28.1l-1.7,1.6c-6.4,6.2-12.9,12.2-19.1,18.1
		c-12,11.3-24.3,22.9-36.4,34.9v0.1l-0.1,0.1v0.5l-0.5,0c-1.1,1.3-1.7,2.7-2,4.3l-0.1,1.3c0,0.8,0.1,1.5,0.4,2.3l0.1,0.3l0.1,0.1
		l0,0.2c0,0.1,0,0.1,0.1,0.2c0.2,0.5,0.4,0.9,0.7,1.3l0.1,0l0.1,0.1l0.2,0.2V96c0.5,0.7,1.2,1.3,1.9,1.8l0,0l0.8,0.5
		c0.4,0.2,0.9,0.4,1.3,0.6l0.1,0l0,0l0,0L9,99l0.2,0l0.1,0.1c0.8,0.2,1.6,0.3,2.3,0.3c0.1,0,0.3,0,0.5,0c0.1,0,0.1,0,0.2,0
		C24.1,99.3,36,99.2,47.8,99.2L47.8,99.2z M2.2,90.9L2.2,90.9L2.2,90.9L2.2,90.9z"/>
	<path class="st0" d="M133.2,21.8c-19.8,0-35.9,16.1-35.9,35.9c0,19.8,16.1,35.9,35.9,35.9c19.8,0,35.9-16.1,35.9-35.9
		C169.1,37.9,153,21.8,133.2,21.8L133.2,21.8z M133.2,74.6c-9.3,0-16.9-7.6-16.9-16.9c0-9.3,7.6-16.9,16.9-16.9
		c9.3,0,16.9,7.6,16.9,16.9C150.1,67,142.5,74.6,133.2,74.6L133.2,74.6z"/>
	<path class="st0" d="M388.1,41.1l-26.2-0.4c0,0-0.1,0-0.1,0c-5.2,0-9.4,4.1-9.5,9.3c-0.1,5.2,4.1,9.5,9.3,9.6l17.2,0.3
		c-1.1,12.4-8.6,23.5-20.1,29.2c-17.8,8.6-39.3,1.1-47.9-16.7c-8.6-17.8-1.1-39.3,16.7-47.9c12.8-6.2,28.1-4.2,38.9,5
		c4,3.4,9.9,2.9,13.3-1.1c3.4-4,2.9-9.9-1.1-13.3C362.1,1,338.8-2,319.2,7.4c-27.2,13.1-38.6,46-25.5,73.2c9.4,19.5,29,31,49.4,31
		c8,0,16.1-1.8,23.8-5.5c21.5-10.4,33.7-33.2,30.5-56.8C396.7,44.7,392.7,41.2,388.1,41.1L388.1,41.1z"/>
	<path class="st0" d="M277.9,22c0-0.6,0-1.1-0.1-1.7c0,0,0,0,0,0c0,0,0,0,0,0c-0.2-1.2-0.7-2.4-1.3-3.4c0,0,0,0,0,0c0,0,0,0,0,0
		c0,0,0,0,0,0c0,0,0,0,0,0c-0.5-0.8-1.2-1.5-1.9-2.2c0,0,0,0,0,0c0,0,0,0,0,0c-0.7-0.6-1.6-1.1-2.5-1.5c-0.7-0.3-1.5-0.5-2.2-0.6
		c0,0,0,0,0,0c0,0,0,0,0,0c-1.4-0.2-2.9-0.1-4.3,0.4c0,0,0,0,0,0c0,0,0,0,0,0c0,0,0,0,0,0c0,0,0,0,0,0c0,0,0,0,0,0c0,0,0,0,0,0
		c0,0,0,0,0,0c0,0,0,0,0,0c0,0,0,0,0,0c0,0,0,0,0,0c0,0,0,0,0,0h0c-0.2,0.1-0.4,0.2-0.7,0.3c0,0,0,0,0,0c0,0,0,0,0,0c0,0,0,0,0,0
		c0,0,0,0,0,0c0,0,0,0,0,0c0,0,0,0,0,0c0,0,0,0,0,0c0,0,0,0,0,0c0,0,0,0,0,0c0,0,0,0,0,0c0,0,0,0,0,0c0,0,0,0,0,0
		c-1.1,0.5-2.1,1.1-2.9,2c-0.1,0.1-0.3,0.3-0.4,0.5c-5.6,6.1-11.6,11.8-17.9,17.7c-4.9,4.6-9.9,9.3-14.8,14.4
		c-0.1,0-0.2,0.1-0.3,0.1c-4.7-4.6-9.3-9.4-14.1-14.4c-6-6.3-12.3-12.7-18.9-19c-0.9-0.9-2-1.5-3.1-2c0,0,0,0,0,0c0,0,0,0,0,0h0
		c0,0,0,0,0,0c0,0,0,0,0,0h0c0,0,0,0,0,0c0,0,0,0,0,0v0c-0.1,0-0.1,0-0.2-0.1h0c0,0,0,0,0,0c0,0,0,0,0,0c0,0,0,0,0,0c0,0,0,0,0,0
		c0,0,0,0,0,0c0,0,0,0,0,0c0,0,0,0,0,0c0,0,0,0,0,0c0,0,0,0,0,0c0,0,0,0,0,0c0,0,0,0,0,0c0,0,0,0,0,0c0,0,0,0,0,0c0,0,0,0,0,0
		c0,0,0,0,0,0c0,0,0,0,0,0c0,0,0,0,0,0h0c0,0,0,0,0,0h0c-1.4-0.5-2.9-0.6-4.4-0.4l0,0c0,0,0,0,0,0c0,0,0,0,0,0c0,0,0,0,0,0
		c0,0,0,0,0,0c0,0,0,0,0,0c-0.7,0.1-1.5,0.3-2.2,0.6c0,0,0,0,0,0c0,0,0,0,0,0c-0.9,0.4-1.7,0.9-2.4,1.5c0,0,0,0,0,0c0,0,0,0,0,0
		c0,0,0,0,0,0c0,0,0,0,0,0c0,0,0,0,0,0l0,0c-0.6,0.5-1.1,1.1-1.6,1.7c0,0,0,0,0,0v0c0,0,0,0,0,0c0,0,0,0,0,0c0,0,0,0,0,0
		c0,0,0,0,0,0c0,0,0,0,0,0c0,0,0,0,0,0c0,0,0,0,0,0c0,0,0,0,0,0c0,0,0,0,0,0c0,0,0,0,0,0c0,0,0,0,0,0c0,0,0,0,0,0c0,0,0,0,0,0
		c0,0,0,0,0,0c0,0,0,0,0,0c0,0,0,0,0,0c0,0,0,0,0,0c0,0,0,0,0,0v0c-0.8,1.1-1.3,2.4-1.5,3.8l0,0c0,0,0,0,0,0c0,0,0,0,0,0
		c0,0,0,0,0,0c0,0,0,0,0,0c0,0,0,0,0,0s0,0,0,0c0,0,0,0,0,0c0,0,0,0,0,0c0,0,0,0,0,0c0,0,0,0,0,0v0c0,0,0,0,0,0v0c0,0,0,0,0,0v0
		c-0.1,0.4-0.1,0.9-0.1,1.3v0v0v0v0v0v0v0v0c0,0,0,0,0,0c-0.2,23.6-0.2,45.7,0,69.6c0,5.2,4.3,9.4,9.5,9.4h0.1
		c5.2-0.1,9.4-4.3,9.4-9.6c-0.2-16-0.2-31.2-0.1-46.6c0.8,0.8,1.6,1.7,2.4,2.5c7,7.3,14.2,14.8,21.9,21.7c1.8,1.7,4.1,2.5,6.4,2.5h0
		h0h0c0,0,0,0,0,0h0h0c0,0,0.1,0,0.2,0h0h0c0,0,0,0,0,0h0c0,0,0,0,0,0c2.3-0.1,4.5-1,6.3-2.7c0,0,0,0,0,0v0c0,0,0.1-0.1,0.1-0.1
		c2-2,3.4-3.5,4.4-4.7c0.2-0.3,0.4-0.5,0.6-0.8c5.2-5.4,10.6-10.5,15.8-15.5c0.8-0.7,1.6-1.5,2.4-2.2c-0.1,15.2,0,30.2,0.2,46
		c0.1,5.2,4.4,9.4,9.6,9.3c5.2-0.1,9.4-4.4,9.3-9.6c-0.3-23.5-0.3-45.2,0-68.3C277.9,22.4,277.9,22.2,277.9,22L277.9,22z"/>
	<path class="st0" d="M323.7,42.4c0,5.1,4.1,9.2,9.2,9.2c5.1,0,9.2-4.1,9.2-9.2c0-5.1-4.1-9.2-9.2-9.2
		C327.8,33.2,323.7,37.3,323.7,42.4L323.7,42.4z"/>
	<path class="st0" d="M10.1,31.7C4.5,31.7,0,27.1,0,21.5C0,16,4.5,11.4,10.1,11.4c5.6,0,10.1,4.5,10.1,10.1
		C20.2,27.1,15.7,31.7,10.1,31.7L10.1,31.7z M10.1,13.3c-4.5,0-8.2,3.7-8.2,8.2s3.7,8.2,8.2,8.2c4.5,0,8.2-3.7,8.2-8.2
		S14.6,13.3,10.1,13.3L10.1,13.3z"/>
	<path class="st0" d="M417.7,112.5c-5,0-9-4-9-9V9c0-5,4-9,9-9c5,0,9,4,9,9v94.5C426.7,108.5,422.6,112.5,417.7,112.5L417.7,112.5z
		 M417.7,1.6c-4.1,0-7.3,3.3-7.3,7.3v94.5c0,4.1,3.3,7.3,7.3,7.3c4.1,0,7.3-3.3,7.3-7.3V9C425,4.9,421.7,1.6,417.7,1.6L417.7,1.6z"
		/>
	<polygon class="st0" points="258.7,127.5 250.4,127.5 250.4,126 261.2,126 252.9,140.6 261.9,140.6 261.9,142.1 250.4,142.1 	"/>
	<path class="st0" d="M274.8,124.6c2.5,0,4.6,0.9,6.3,2.6c1.7,1.8,2.6,3.9,2.6,6.4c0,2.5-0.9,4.6-2.6,6.3c-1.7,1.8-3.9,2.6-6.3,2.6
		c-2.5,0-4.6-0.9-6.3-2.6c-1.8-1.8-2.6-3.9-2.6-6.3c0-2.5,0.9-4.6,2.6-6.4C270.2,125.5,272.3,124.6,274.8,124.6L274.8,124.6z
		 M269.5,128.3c-1.4,1.4-2.2,3.2-2.2,5.2c0,2,0.7,3.8,2.2,5.2c1.4,1.4,3.2,2.2,5.2,2.2c2,0,3.8-0.7,5.2-2.2c1.4-1.4,2.2-3.2,2.2-5.2
		c0-2-0.7-3.8-2.2-5.2c-1.4-1.4-3.2-2.2-5.2-2.2C272.7,126.2,271,126.9,269.5,128.3L269.5,128.3z"/>
	<path class="st0" d="M287.6,126h1.5v0.4c0.9-0.9,2-1.3,3.3-1.3c1.3,0,2.4,0.5,3.4,1.4c0.3,0.3,0.5,0.5,0.7,0.8
		c0.2-0.3,0.4-0.6,0.7-0.8c0.9-0.9,2-1.4,3.4-1.4c1.3,0,2.4,0.5,3.4,1.4c0.9,0.9,1.3,2,1.4,3.2v12.4h-1.5v-12.4h0
		c0-0.9-0.4-1.6-1-2.2c-0.7-0.6-1.4-1-2.3-1c-0.9,0-1.7,0.3-2.3,1c-0.6,0.6-1,1.4-1,2.4v12.2h-1.5v-12.4h0c0-0.9-0.4-1.6-1-2.2
		c-0.7-0.6-1.4-1-2.3-1c-0.9,0-1.7,0.3-2.3,1c-0.6,0.6-0.9,1.2-1,2v12.5h-1.5V126z"/>
	<path class="st0" d="M325.9,138.9c-0.3,0.3-0.6,0.7-0.9,1c-1.8,1.8-3.9,2.6-6.4,2.6c-2.5,0-4.6-0.9-6.3-2.6
		c-1.8-1.8-2.6-3.9-2.6-6.3c0-2.5,0.9-4.6,2.6-6.3c1.8-1.7,3.9-2.6,6.3-2.6c2.5,0,4.6,0.9,6.4,2.6c0.3,0.3,0.6,0.7,0.9,1.1V126h1.5
		v12.5c0,2.4-0.9,4.5-2.6,6.2c-1.8,1.8-3.9,2.6-6.3,2.6c-2.5,0-4.6-0.9-6.4-2.6c-0.4-0.4-0.7-0.7-1-1.1l1.6-0.6
		c0.2,0.2,0.3,0.4,0.5,0.6c1.4,1.4,3.2,2.2,5.2,2.2c2,0,3.8-0.7,5.2-2.2C325.1,142.3,325.8,140.7,325.9,138.9L325.9,138.9z
		 M325.9,132c-0.3-1.4-1-2.6-2-3.7c-1.4-1.4-3.2-2.2-5.2-2.2c-2,0-3.8,0.7-5.2,2.2c-1.4,1.4-2.2,3.2-2.2,5.2c0,2,0.7,3.8,2.2,5.2
		c1.4,1.4,3.2,2.2,5.2,2.2c2,0,3.8-0.7,5.2-2.2c1.1-1.1,1.7-2.3,2-3.7V132z"/>
	<path class="st0" d="M333.5,139.8c0.3,0.3,0.4,0.6,0.4,1c0,0.4-0.1,0.8-0.4,1c-0.3,0.3-0.6,0.4-1,0.4c-0.4,0-0.7-0.1-1-0.4
		c-0.3-0.3-0.4-0.6-0.4-1c0-0.4,0.1-0.7,0.4-1c0.3-0.3,0.6-0.4,1-0.4C332.9,139.4,333.2,139.5,333.5,139.8L333.5,139.8z"/>
	<path class="st0" d="M342.4,133.8c-1.3-0.7-2.1-1.3-2.6-1.7c-0.8-0.8-1.1-1.7-1.1-2.7c0-1.1,0.4-2,1.1-2.7c0.8-0.8,1.7-1.1,2.7-1.1
		c1.1,0,1.9,0.3,2.6,1c0.7,0.7,1,1.5,1,2.3v0.1l-1.3,0.5c-0.1-0.8-0.4-1.4-0.8-1.9c-0.4-0.4-0.9-0.6-1.6-0.6c-0.7,0-1.2,0.2-1.7,0.7
		c-0.5,0.5-0.7,1-0.7,1.7c0,0.7,0.2,1.2,0.7,1.7c0.3,0.3,0.8,0.7,1.7,1.2c1.4,0.8,2.4,1.4,3,2c0.9,0.9,1.4,2.1,1.4,3.4
		c0,1.3-0.5,2.5-1.4,3.4c-0.9,0.9-2,1.4-3.4,1.4c-1.3,0-2.4-0.5-3.4-1.4c-0.9-0.9-1.4-2-1.4-3.1l1.5-0.4c0,1,0.3,1.8,1,2.4
		c0.6,0.6,1.4,1,2.3,1c0.9,0,1.7-0.3,2.3-1c0.6-0.6,1-1.4,1-2.4c0-0.9-0.3-1.7-1-2.3C344.2,135,343.5,134.5,342.4,133.8L342.4,133.8
		z"/>
	<polygon class="st0" points="353.6,126 353.6,123.5 355.1,123.5 355.1,126 358.4,126 358.4,127.5 355.1,127.5 355.1,142.1 
		353.6,142.1 353.6,127.5 350.4,127.5 350.4,126 	"/>
	<path class="st0" d="M368.9,142.3c-2,0-3.6-0.6-4.8-1.8c-1.2-1.2-1.8-2.7-1.8-4.5v-10h1.5v9.9c0,1.4,0.5,2.5,1.5,3.5
		c1,1,2.2,1.5,3.6,1.5c1.4,0,2.5-0.5,3.5-1.4c1-1,1.5-2.1,1.5-3.5V126h1.5v10c0,1.8-0.6,3.3-1.8,4.5
		C372.3,141.7,370.8,142.3,368.9,142.3L368.9,142.3z"/>
	<path class="st0" d="M397.6,142.1h-1.5v-3.3c-0.3,0.4-0.6,0.7-0.9,1.1c-1.8,1.8-3.9,2.6-6.4,2.6c-2.5,0-4.6-0.9-6.3-2.6
		c-1.8-1.8-2.6-3.9-2.6-6.3c0-2.5,0.9-4.6,2.6-6.4c1.8-1.8,3.9-2.6,6.3-2.6c2.5,0,4.6,0.9,6.4,2.6c0.3,0.3,0.6,0.7,0.9,1.1v-12.4
		h1.5V142.1z M396.1,135v-2.9c-0.3-1.4-1-2.7-2-3.8c-1.4-1.4-3.2-2.2-5.2-2.2c-2,0-3.8,0.7-5.2,2.2c-1.4,1.4-2.2,3.2-2.2,5.2
		c0,2,0.7,3.8,2.2,5.2c1.4,1.4,3.2,2.2,5.2,2.2c2,0,3.8-0.7,5.2-2.2C395.2,137.7,395.8,136.5,396.1,135L396.1,135z"/>
	<path class="st0" d="M404.6,123.6c0.3,0.3,0.4,0.6,0.4,1c0,0.4-0.1,0.8-0.4,1c-0.3,0.3-0.6,0.4-1,0.4c-0.4,0-0.7-0.1-1-0.4
		c-0.3-0.3-0.4-0.6-0.4-1c0-0.4,0.1-0.7,0.4-1c0.3-0.3,0.6-0.4,1-0.4C404,123.1,404.3,123.3,404.6,123.6L404.6,123.6z M404.3,142.1
		h-1.5v-11.8h1.5V142.1z"/>
	<path class="st0" d="M417.5,124.6c2.5,0,4.6,0.9,6.3,2.6c1.7,1.8,2.6,3.9,2.6,6.4c0,2.5-0.9,4.6-2.6,6.3c-1.7,1.8-3.9,2.6-6.3,2.6
		c-2.5,0-4.6-0.9-6.3-2.6c-1.8-1.8-2.6-3.9-2.6-6.3c0-2.5,0.9-4.6,2.6-6.4C412.9,125.5,415,124.6,417.5,124.6L417.5,124.6z
		 M412.3,128.3c-1.4,1.4-2.2,3.2-2.2,5.2c0,2,0.7,3.8,2.2,5.2c1.4,1.4,3.2,2.2,5.2,2.2c2,0,3.8-0.7,5.2-2.2c1.4-1.4,2.2-3.2,2.2-5.2
		c0-2-0.7-3.8-2.2-5.2c-1.4-1.4-3.2-2.2-5.2-2.2C415.5,126.2,413.7,126.9,412.3,128.3L412.3,128.3z"/>
	<path class="st1" d="M412.3,128.3c-1.4,1.4-2.2,3.2-2.2,5.2c0,2,0.7,3.8,2.2,5.2c1.4,1.4,3.2,2.2,5.2,2.2c2,0,3.8-0.7,5.2-2.2
		c1.4-1.4,2.2-3.2,2.2-5.2c0-2-0.7-3.8-2.2-5.2c-1.4-1.4-3.2-2.2-5.2-2.2C415.5,126.2,413.7,126.9,412.3,128.3"/>
</g>
</svg>
