<?xml version="1.0" standalone="no"?>
<!DOCTYPE svg PUBLIC "-//W3C//DTD SVG 20010904//EN"
 "http://www.w3.org/TR/2001/REC-SVG-20010904/DTD/svg10.dtd">
<svg version="1.0" xmlns="http://www.w3.org/2000/svg"
 width="260.000000pt" height="260.000000pt" viewBox="0 0 260.000000 260.000000"
 preserveAspectRatio="xMidYMid meet">
<metadata>
Created by potrace 1.11, written by Peter Selinger 2001-2013
</metadata>
<g transform="translate(0.000000,260.000000) scale(0.100000,-0.100000)"
fill="#000000" stroke="none">
<path d="M1354 2448 c-3 -13 -17 -45 -29 -73 -13 -27 -49 -108 -80 -180 -31
-71 -61 -141 -67 -155 -10 -24 -12 -22 -44 45 -19 39 -39 87 -45 108 -7 20
-15 37 -19 37 -4 0 -20 -28 -35 -62 -15 -35 -35 -81 -45 -103 -59 -129 -78
-175 -73 -175 3 0 1 -6 -5 -12 -6 -7 -40 -83 -77 -168 -66 -152 -75 -173 -129
-295 -70 -156 -65 -133 -39 -199 13 -32 40 -92 59 -133 18 -41 34 -76 34 -78
0 -2 13 -32 29 -67 16 -35 41 -92 56 -128 15 -35 39 -92 55 -125 28 -62 100
-228 141 -324 l23 -54 25 55 c14 30 60 132 101 227 41 94 78 171 83 171 4 0
12 -12 18 -27 51 -137 89 -210 89 -170 0 16 57 137 65 137 3 0 3 -4 0 -10 -5
-8 29 -98 90 -235 8 -16 26 -57 40 -90 15 -33 47 -107 72 -165 43 -102 63
-137 63 -112 0 10 36 95 105 247 88 195 305 699 305 708 0 10 -111 270 -184
432 -8 17 -37 84 -66 150 -29 66 -67 152 -84 190 -18 39 -43 96 -57 127 -13
32 -27 58 -30 58 -7 0 -49 -101 -49 -120 0 -9 -3 -10 -9 -4 -10 9 -243 532
-256 573 -8 27 -22 27 -31 -1z m-587 -1053 c0 -8 -4 -12 -9 -9 -5 3 -6 10 -3
15 9 13 12 11 12 -6z m0 -120 c0 -8 -4 -12 -9 -9 -5 3 -6 10 -3 15 9 13 12 11
12 -6z m43 -59 c0 -2 -8 -10 -17 -17 -16 -13 -17 -12 -4 4 13 16 21 21 21 13z
m-40 -92 c0 -8 -19 -13 -24 -6 -3 5 1 9 9 9 8 0 15 -2 15 -3z m884 -82 c3 -5
-1 -9 -9 -9 -8 0 -12 4 -9 9 3 4 7 8 9 8 2 0 6 -4 9 -8z"/>
</g>
</svg>
